<svg xmlns="http://www.w3.org/2000/svg" viewBox="370 4136 78 78">
  <defs>
    <style>
      .cls-1 {
        fill: #00aeff;
        opacity: 0.6;
      }

      .cls-2 {
        fill: #003c58;
      }
    </style>
  </defs>
  <g id="Group_180" data-name="Group 180" transform="translate(370 4136)">
    <g id="Group_178" data-name="Group 178" transform="translate(12.103 28.241)">
      <rect id="Rectangle_62" data-name="Rectangle 62" class="cls-1" width="10.759" height="43.034"/>
      <rect id="Rectangle_63" data-name="Rectangle 63" class="cls-1" width="10.759" height="43.034" transform="translate(21.517)"/>
      <rect id="Rectangle_64" data-name="Rectangle 64" class="cls-1" width="10.759" height="43.034" transform="translate(43.034)"/>
    </g>
    <g id="Group_179" data-name="Group 179">
      <path id="Path_193" data-name="Path 193" class="cls-2" d="M77.059,10.759,39.4,0H38.6L.941,10.759A1.619,1.619,0,0,0,0,12.1v2.69a3.962,3.962,0,0,0,4.034,4.034H5.379v1.345a3.962,3.962,0,0,0,4.034,4.034h1.345V64.552H9.414a3.962,3.962,0,0,0-4.034,4.034v1.345H4.034A3.962,3.962,0,0,0,0,73.966v2.69A1.271,1.271,0,0,0,1.345,78h75.31A1.271,1.271,0,0,0,78,76.655v-2.69a3.962,3.962,0,0,0-4.034-4.034H72.621V68.586a3.962,3.962,0,0,0-4.034-4.034H67.241V24.207h1.345a3.962,3.962,0,0,0,4.034-4.034V18.828h1.345A3.962,3.962,0,0,0,78,14.793V12.1A1.619,1.619,0,0,0,77.059,10.759ZM13.448,24.207h8.069V64.552H13.448Zm18.828,0V26.9H24.207v-2.69Zm21.517,0V26.9H45.724v-2.69ZM45.724,64.552V29.586h8.069V64.552Zm-2.69,0H34.966V24.207h8.069Zm-18.828,0V29.586h8.069V64.552Zm51.1,9.414V75.31H2.69V73.966a1.271,1.271,0,0,1,1.345-1.345H73.966A1.271,1.271,0,0,1,75.31,73.966Zm-5.379-5.379v1.345H8.069V68.586a1.271,1.271,0,0,1,1.345-1.345H68.586A1.271,1.271,0,0,1,69.931,68.586Zm-5.379-4.034H56.483V24.207h8.069Zm5.379-44.379a1.271,1.271,0,0,1-1.345,1.345H9.414a1.271,1.271,0,0,1-1.345-1.345V18.828H69.931Zm5.379-5.379a1.271,1.271,0,0,1-1.345,1.345H4.034A1.271,1.271,0,0,1,2.69,14.793V13.179L39,2.69,75.31,13.045Z"/>
      <path id="Path_194" data-name="Path 194" class="cls-2" d="M97.345,160A1.271,1.271,0,0,0,96,161.345v16.138a1.345,1.345,0,1,0,2.69,0V161.345A1.271,1.271,0,0,0,97.345,160Z" transform="translate(-79.862 -133.103)"/>
      <path id="Path_195" data-name="Path 195" class="cls-2" d="M97.345,288A1.271,1.271,0,0,0,96,289.345V300.1a1.345,1.345,0,0,0,2.69,0V289.345A1.271,1.271,0,0,0,97.345,288Z" transform="translate(-79.862 -239.586)"/>
      <path id="Path_196" data-name="Path 196" class="cls-2" d="M225.345,248.207a1.271,1.271,0,0,0,1.345-1.345V225.345a1.345,1.345,0,0,0-2.69,0v21.517A1.271,1.271,0,0,0,225.345,248.207Z" transform="translate(-186.345 -186.345)"/>
      <path id="Path_197" data-name="Path 197" class="cls-2" d="M225.345,168.069a1.271,1.271,0,0,0,1.345-1.345v-5.379a1.345,1.345,0,0,0-2.69,0v5.379A1.271,1.271,0,0,0,225.345,168.069Z" transform="translate(-186.345 -133.103)"/>
      <path id="Path_198" data-name="Path 198" class="cls-2" d="M353.345,194.966a1.271,1.271,0,0,0,1.345-1.345V161.345a1.345,1.345,0,1,0-2.69,0v32.276A1.271,1.271,0,0,0,353.345,194.966Z" transform="translate(-292.828 -133.103)"/>
      <path id="Path_199" data-name="Path 199" class="cls-2" d="M208,36.034A4.034,4.034,0,1,0,212.034,32,3.962,3.962,0,0,0,208,36.034Zm5.379,0a1.345,1.345,0,1,1-1.345-1.345A1.271,1.271,0,0,1,213.379,36.034Z" transform="translate(-173.034 -26.621)"/>
    </g>
  </g>
</svg>
