<?xml version="1.0" encoding="utf-8"?>
<!-- Generator: Adobe Illustrator 20.1.0, SVG Export Plug-In . SVG Version: 6.00 Build 0)  -->
<svg version="1.0" id="Camada_1" xmlns="http://www.w3.org/2000/svg" xmlns:xlink="http://www.w3.org/1999/xlink" x="0px" y="0px"
	 viewBox="0 0 187.5 54" style="enable-background:new 0 0 187.5 54;" xml:space="preserve">
<style type="text/css">
	.st0{fill:#FFFFFF;}
	.st1{fill:#B71864;}
</style>
<g id="XMLID_4291_">
	<path id="XMLID_4292_" class="st0" d="M88.1,12.2c-1.1,0-2,0.4-2.6,1.3c-0.6,0.9-0.9,2-0.9,3.6c0,3.2,1.2,4.8,3.6,4.8
		c1,0,2.2-0.3,3.6-0.8v2.5c-1.2,0.5-2.5,0.7-3.9,0.7c-2.1,0-3.7-0.6-4.8-1.9c-1.1-1.3-1.6-3.1-1.6-5.4c0-1.5,0.3-2.8,0.8-3.9
		c0.5-1.1,1.3-2,2.3-2.6c1-0.6,2.2-0.9,3.6-0.9c1.4,0,2.8,0.3,4.2,1l-1,2.5c-0.5-0.3-1.1-0.5-1.6-0.7C89.1,12.3,88.6,12.2,88.1,12.2
		z"/>
	<path id="XMLID_4294_" class="st0" d="M107.7,17c0,2.4-0.6,4.2-1.8,5.4c-1.2,1.3-2.8,1.9-5,1.9c-2.2,0-3.9-0.6-5-1.9
		c-1.2-1.3-1.8-3.1-1.8-5.5s0.6-4.2,1.8-5.4s2.9-1.9,5.1-1.9c2.2,0,3.9,0.6,5,1.9C107.1,12.8,107.7,14.6,107.7,17z M97.3,17
		c0,1.6,0.3,2.8,0.9,3.6c0.6,0.8,1.5,1.2,2.7,1.2c2.4,0,3.6-1.6,3.6-4.8c0-3.2-1.2-4.8-3.6-4.8c-1.2,0-2.1,0.4-2.7,1.2
		C97.6,14.2,97.3,15.4,97.3,17z"/>
	<path id="XMLID_4297_" class="st0" d="M123.3,24.1h-3.8l-6.2-10.8h-0.1c0.1,1.9,0.2,3.3,0.2,4.1v6.7h-2.7V9.9h3.8l6.2,10.7h0.1
		c-0.1-1.9-0.1-3.2-0.1-3.9V9.9h2.7V24.1z"/>
	<path id="XMLID_4299_" class="st0" d="M135,9.9h3.1l-4.9,14.3h-3.3l-4.8-14.3h3.1l2.7,8.5c0.1,0.5,0.3,1.1,0.5,1.8
		c0.2,0.7,0.3,1.1,0.3,1.4c0.1-0.6,0.3-1.6,0.7-3.1L135,9.9z"/>
	<path id="XMLID_4301_" class="st0" d="M148.1,24.1h-8.2V9.9h8.2v2.5h-5.2v3.1h4.8V18h-4.8v3.7h5.2V24.1z"/>
	<path id="XMLID_4303_" class="st0" d="M154.1,18.7v5.5h-3V9.9h4.2c1.9,0,3.4,0.4,4.3,1.1c0.9,0.7,1.4,1.8,1.4,3.2
		c0,0.8-0.2,1.6-0.7,2.2c-0.5,0.7-1.1,1.2-2,1.5c2.1,3.2,3.5,5.3,4.2,6.2h-3.4l-3.4-5.5H154.1z M154.1,16.2h1c1,0,1.7-0.2,2.1-0.5
		c0.5-0.3,0.7-0.8,0.7-1.5c0-0.7-0.2-1.2-0.7-1.4c-0.5-0.3-1.2-0.4-2.2-0.4h-0.9V16.2z"/>
	<path id="XMLID_4306_" class="st0" d="M169.7,16.1h5.7v7.4c-0.9,0.3-1.8,0.5-2.6,0.6c-0.8,0.1-1.6,0.2-2.5,0.2
		c-2.2,0-3.8-0.6-4.9-1.9c-1.1-1.3-1.7-3.1-1.7-5.5c0-2.3,0.7-4.1,2-5.4c1.3-1.3,3.1-1.9,5.5-1.9c1.5,0,2.9,0.3,4.2,0.9l-1,2.4
		c-1-0.5-2.1-0.8-3.2-0.8c-1.3,0-2.4,0.4-3.1,1.3c-0.8,0.9-1.2,2.1-1.2,3.5c0,1.5,0.3,2.7,1,3.5s1.6,1.2,2.8,1.2
		c0.6,0,1.3-0.1,1.9-0.2v-3h-2.7V16.1z"/>
	<path id="XMLID_4308_" class="st0" d="M187,24.1h-8.2V9.9h8.2v2.5h-5.2v3.1h4.8V18h-4.8v3.7h5.2V24.1z"/>
	<path id="XMLID_4310_" class="st0" d="M86.5,35.7l3-5.9h3.3L88,38.6v5.6h-3v-5.5l-4.7-8.8h3.3L86.5,35.7z"/>
	<path id="XMLID_4312_" class="st0" d="M107.4,37c0,2.4-0.6,4.2-1.8,5.4c-1.2,1.3-2.8,1.9-5,1.9c-2.2,0-3.9-0.6-5-1.9
		c-1.2-1.3-1.8-3.1-1.8-5.5s0.6-4.2,1.8-5.4c1.2-1.3,2.9-1.9,5.1-1.9c2.2,0,3.9,0.6,5,1.9C106.9,32.8,107.4,34.6,107.4,37z M97,37
		c0,1.6,0.3,2.8,0.9,3.6c0.6,0.8,1.5,1.2,2.7,1.2c2.4,0,3.6-1.6,3.6-4.8c0-3.2-1.2-4.8-3.6-4.8c-1.2,0-2.1,0.4-2.7,1.2
		C97.3,34.2,97,35.4,97,37z"/>
	<path id="XMLID_4315_" class="st0" d="M122,29.8v9.2c0,1.1-0.2,2-0.7,2.8c-0.5,0.8-1.2,1.4-2,1.8s-1.9,0.6-3.2,0.6
		c-1.8,0-3.3-0.5-4.3-1.4c-1-0.9-1.5-2.2-1.5-3.9v-9.2h3v8.7c0,1.1,0.2,1.9,0.7,2.4c0.4,0.5,1.2,0.8,2.2,0.8c1,0,1.7-0.3,2.2-0.8
		c0.4-0.5,0.7-1.3,0.7-2.4v-8.7H122z"/>
</g>
<g id="XMLID_486_">
	<g>
		<g>
			<g>
				<path class="st0" d="M72.5,9.3c0-2.4-2-4.4-4.4-4.4c-1.4,0-2.7,0.7-3.5,1.8l0,0l-9.7,13l0.9,1.2c1.8,2.3,2.9,5.1,3.3,7.9
					L71.6,12l0,0C72.1,11.2,72.5,10.3,72.5,9.3z"/>
				<circle class="st0" cx="41.6" cy="44.7" r="4.4"/>
			</g>
		</g>
		<g id="XMLID_13_">
			<path class="st0" d="M44.2,48.2L44.2,48.2c-0.1,0-0.1,0.1-0.2,0.1C44.1,48.3,44.2,48.2,44.2,48.2z"/>
			<path class="st1" d="M55.7,20.8L48.3,11c0,0-1-1.4-2.3-3c-1.5-1.8-3.3-3.3-5.4-4.4c-3.6-1.9-7.7-3-12.1-3
				C14.1,0.4,2.1,12,1.8,26.4C1.5,41.3,13.5,53.5,28.3,53.5c5.9,0,11.3-1.9,15.7-5.2c-0.7,0.5-1.5,0.7-2.5,0.7c-2.4,0-4.4-2-4.4-4.4
				c0-1.4,0.7-2.7,1.7-3.5l0,0v0c-3.2,2.3-7.1,3.7-11.4,3.4c-9.2-0.5-16.6-8.1-16.8-17.4c-0.1-9.9,7.8-17.9,17.7-17.9
				c3,0,5.8,0.7,8.2,2c1.1,0.6,2.1,1.5,2.9,2.5l9.2,12.3c1.1,1.5,1.8,3.4,1.8,5.3v13.3c0,2.4,2,4.4,4.4,4.4c2.4,0,4.4-2,4.4-4.4
				V31.4C59.2,27.6,58,23.9,55.7,20.8z"/>
		</g>
	</g>
</g>
</svg>
