<svg xmlns="http://www.w3.org/2000/svg" viewBox="970 4136 78 77.95">
  <defs>
    <style>
      .cls-1 {
        fill: #00aeff;
        opacity: 0.6;
      }

      .cls-2 {
        fill: #003c58;
      }
    </style>
  </defs>
  <g id="Group_184" data-name="Group 184" transform="translate(970 4136)">
    <g id="Group_183" data-name="Group 183" transform="translate(8.573 13.939)">
      <path id="Path_206" data-name="Path 206" class="cls-1" d="M167.937,329.58a5.362,5.362,0,0,0-3.8-1.58H142.626a5.362,5.362,0,0,0-5.126,3.765,21.535,21.535,0,0,0,31.765,0A5.221,5.221,0,0,0,167.937,329.58Z" transform="translate(-122.964 -286.813)"/>
      <circle id="Ellipse_1" data-name="Ellipse 1" class="cls-1" cx="5.378" cy="5.378" r="5.378" transform="translate(57.309 25.053)"/>
      <circle id="Ellipse_2" data-name="Ellipse 2" class="cls-1" cx="5.378" cy="5.378" r="5.378" transform="translate(0 7.606) rotate(-45)"/>
    </g>
    <path id="Path_207" data-name="Path 207" class="cls-2" d="M71.261,32.269a6.741,6.741,0,0,0-6.588,5.378H61.782A22.664,22.664,0,0,0,56.05,23.832c.017,0,.017-.017.034-.017l2.034-2.034a6.726,6.726,0,0,0,10.437-5.613,6.625,6.625,0,0,0-2-4.739A6.729,6.729,0,0,0,61.8,9.462a6.714,6.714,0,0,0-6.706,6.723A6.694,6.694,0,0,0,56.2,19.9l-2.034,2.034a.059.059,0,0,0-.017.034,22.705,22.705,0,0,0-13.815-5.731V13.311a6.723,6.723,0,1,0-2.689,0V16.2a22.664,22.664,0,0,0-13.815,5.731c0-.017-.017-.017-.017-.034l-2.034-2.034A6.726,6.726,0,0,0,16.168,9.429a6.772,6.772,0,0,0-6.706,6.756,6.714,6.714,0,0,0,6.723,6.706A6.694,6.694,0,0,0,19.9,21.782l2.034,2.034a.059.059,0,0,0,.034.017,22.705,22.705,0,0,0-5.731,13.815H13.311a6.723,6.723,0,1,0,0,2.689H16.2a22.744,22.744,0,0,0,5.462,13.513,4.922,4.922,0,0,0-.118.689L19.882,56.2A6.726,6.726,0,0,0,9.445,61.815a6.742,6.742,0,0,0,6.739,6.706,6.729,6.729,0,0,0,4.756-1.966,6.751,6.751,0,0,0,.857-8.471l2.034-2.034a.059.059,0,0,0,.017-.034,22.705,22.705,0,0,0,13.815,5.731v2.891a6.723,6.723,0,1,0,2.689,0V61.748a22.664,22.664,0,0,0,13.815-5.731c0,.017.017.017.017.034l2.034,2.034a6.7,6.7,0,1,0,1.9-1.9l-1.664-1.664c-.017-.235-.084-.471-.118-.689A22.744,22.744,0,0,0,61.8,40.319h2.891a6.722,6.722,0,1,0,6.571-8.05Zm-12.3-18.941a4.058,4.058,0,0,1,5.714,0,3.961,3.961,0,0,1,1.176,2.857,4.06,4.06,0,0,1-1.176,2.857,4.111,4.111,0,0,1-5.7,0,4.078,4.078,0,0,1-.017-5.714Zm-45.63,5.7a4.058,4.058,0,0,1,0-5.714,3.961,3.961,0,0,1,2.857-1.176,4.06,4.06,0,0,1,2.857,1.176,3.961,3.961,0,0,1,1.176,2.857,4.06,4.06,0,0,1-1.176,2.857A4.132,4.132,0,0,1,13.328,19.025Zm21.63-12.3a4.034,4.034,0,1,1,4.034,4.034A4.045,4.045,0,0,1,34.958,6.723ZM6.723,43.025a4.034,4.034,0,1,1,4.034-4.034A4.045,4.045,0,0,1,6.723,43.025Zm12.3,21.63a4.111,4.111,0,0,1-5.7,0,4.058,4.058,0,0,1,0-5.714,3.961,3.961,0,0,1,2.857-1.176,4.06,4.06,0,0,1,2.857,1.176A3.961,3.961,0,0,1,20.218,61.8,4.047,4.047,0,0,1,19.025,64.655Zm24,6.605a4.034,4.034,0,1,1-4.034-4.034A4.045,4.045,0,0,1,43.025,71.261Zm-4.034-12.1a20.048,20.048,0,0,1-14.286-5.95,4.015,4.015,0,0,1,3.529-2.118H49.748a4.015,4.015,0,0,1,3.529,2.118A20.048,20.048,0,0,1,38.992,59.16Zm0-16.134A9.412,9.412,0,1,1,48.4,33.613,9.418,9.418,0,0,1,38.992,43.025Zm-4.185,1.933a11.956,11.956,0,0,0,8.37,0,1.72,1.72,0,0,0,.235.37L46.487,48.4H31.462l3.076-3.076A1.286,1.286,0,0,0,34.807,44.958Zm29.849,14a4.058,4.058,0,0,1,0,5.714,4.111,4.111,0,0,1-5.7,0,4.058,4.058,0,0,1,0-5.714,4.037,4.037,0,0,1,5.7,0Zm-9.563-7.882a6.722,6.722,0,0,0-4.773-2.655l-4.706-4.706a12.088,12.088,0,1,0-13.277.017L27.63,48.437a6.722,6.722,0,0,0-4.773,2.655,20.168,20.168,0,1,1,36.3-12.1A20,20,0,0,1,55.092,51.076Zm16.168-8.05a4.034,4.034,0,1,1,4.034-4.034A4.045,4.045,0,0,1,71.261,43.025Z"/>
  </g>
</svg>
