<svg xmlns="http://www.w3.org/2000/svg" viewBox="970 4356 78 72.621">
  <defs>
    <style>
      .cls-1 {
        fill: #00aeff;
        opacity: 0.6;
      }

      .cls-2 {
        fill: #003c58;
      }
    </style>
  </defs>
  <g id="Group_186" data-name="Group 186" transform="translate(970 4356)">
    <path id="Path_208" data-name="Path 208" class="cls-1" d="M77.655,40l-5.379,5.379L66.9,40,40,66.9H54.928c2.959-2.69,7.262-5.379,11.969-5.379s9.145,2.69,11.969,5.379h25.686Z" transform="translate(-33.276 -33.276)"/>
    <g id="Group_185" data-name="Group 185">
      <path id="Path_209" data-name="Path 209" class="cls-2" d="M328.069,276.034a4.034,4.034,0,1,0-4.034,4.034A3.962,3.962,0,0,0,328.069,276.034Zm-4.034,1.345a1.345,1.345,0,1,1,1.345-1.345A1.271,1.271,0,0,1,324.034,277.379Z" transform="translate(-266.207 -226.276)"/>
      <path id="Path_210" data-name="Path 210" class="cls-2" d="M71.276,16.138H61.055L45.321.4a1.3,1.3,0,0,0-1.883,0L39,4.841,34.562.4a1.3,1.3,0,0,0-1.883,0L16.945,16.138H6.724A6.659,6.659,0,0,0,0,22.862V65.9a6.659,6.659,0,0,0,6.724,6.724H71.276A6.659,6.659,0,0,0,78,65.9V22.862A6.659,6.659,0,0,0,71.276,16.138Zm0,2.69a3.962,3.962,0,0,1,4.034,4.034,4.06,4.06,0,0,1-3.5,4.034l-8.069-8.069Zm-26.9-15.6,15.2,15.2h0L68.048,26.9H61.055L40.883,6.724Zm-10.759,0,4.438,4.438L57.29,26.9H46.128C43.707,24.745,39,21.517,33.621,21.517c-5.514,0-10.086,3.228-12.507,5.379H9.952l8.472-8.472h0ZM41.69,26.9H25.552a15.6,15.6,0,0,1,8.069-2.69A15.6,15.6,0,0,1,41.69,26.9ZM6.724,18.828h7.531L6.186,26.9a4.06,4.06,0,0,1-3.5-4.034A3.962,3.962,0,0,1,6.724,18.828Zm64.552,51.1H6.724A3.962,3.962,0,0,1,2.69,65.9V28.241a6.915,6.915,0,0,0,4.034,1.345H71.276a6.915,6.915,0,0,0,4.034-1.345V53.793H55.676l-4.034-4.034,4.034-4.034h15.6a1.345,1.345,0,1,0,0-2.69H55.138a1.221,1.221,0,0,0-.941.4l-5.379,5.379a1.3,1.3,0,0,0,0,1.883L54.2,56.079a1.221,1.221,0,0,0,.941.4H75.31V65.9A3.962,3.962,0,0,1,71.276,69.931Z"/>
      <path id="Path_211" data-name="Path 211" class="cls-2" d="M139.162,256.4,128.4,267.162a1.3,1.3,0,0,0,0,1.883,1.3,1.3,0,0,0,1.883,0l10.759-10.759a1.331,1.331,0,0,0-1.883-1.883Z" transform="translate(-106.483 -212.966)"/>
      <path id="Path_212" data-name="Path 212" class="cls-2" d="M129.345,264.069a1.221,1.221,0,0,0,.941-.4l5.379-5.379a1.331,1.331,0,0,0-1.883-1.883l-5.379,5.379a1.3,1.3,0,0,0,0,1.883A1.221,1.221,0,0,0,129.345,264.069Z" transform="translate(-106.483 -212.966)"/>
      <path id="Path_213" data-name="Path 213" class="cls-2" d="M165.783,288.4l-5.379,5.379a1.3,1.3,0,0,0,0,1.883,1.3,1.3,0,0,0,1.883,0l5.379-5.379a1.331,1.331,0,1,0-1.883-1.883Z" transform="translate(-133.103 -239.586)"/>
      <path id="Path_214" data-name="Path 214" class="cls-2" d="M38.724,357.379a4.186,4.186,0,0,1-2.959-1.076,4.73,4.73,0,0,1-1.076-2.959,1.345,1.345,0,0,0-2.69,0,7.868,7.868,0,0,0,1.883,4.976,7.088,7.088,0,0,0,4.841,1.748,1.345,1.345,0,0,0,0-2.69Z" transform="translate(-26.621 -292.828)"/>
    </g>
  </g>
</svg>
