<svg xmlns="http://www.w3.org/2000/svg" viewBox="874 3363 172.059 100">
  <defs>
    <style>
      .cls-1 {
        fill: #00aeff;
        opacity: 0.6;
      }

      .cls-2 {
        fill: #003c58;
      }
    </style>
  </defs>
  <g id="Group_157" data-name="Group 157" transform="translate(874 3363)">
    <path id="Path_185" data-name="Path 185" class="cls-1" d="M173.294,72a35.294,35.294,0,1,0,35.294,35.294A35.4,35.4,0,0,1,173.294,72Z" transform="translate(-87.265 -45.529)"/>
    <g id="Group_156" data-name="Group 156" transform="translate(0)">
      <path id="Path_186" data-name="Path 186" class="cls-2" d="M86.029,0C41.912,0,5.441,41.471,1.324,46.176a6.181,6.181,0,0,0,0,7.647C5.441,58.529,41.912,100,86.029,100s80.588-41.471,84.706-46.176a6.181,6.181,0,0,0,0-7.647C166.618,41.471,130.147,0,86.029,0ZM18.676,62.647,41.029,40.294a2.912,2.912,0,0,0-4.118-4.118L14.265,58.824c-5-4.706-7.941-8.235-8.235-8.824,1.471-1.765,37.941-44.118,80-44.118,29.118,0,55.294,20,69.412,33.235a15.162,15.162,0,0,0-5,10.882,14.119,14.119,0,0,0,5,10.882c-14.118,13.235-40.294,33.235-69.412,33.235C58.382,94.118,33.088,75.882,18.676,62.647Zm140.882-5.882a8.69,8.69,0,0,1,0-13.529c3.824,3.824,6.176,6.471,6.471,6.765A49.026,49.026,0,0,1,159.559,56.765Z" transform="translate(0)"/>
      <path id="Path_187" data-name="Path 187" class="cls-2" d="M203.529,67.294a26.587,26.587,0,0,1-10.882-2.059,30.512,30.512,0,0,1-2.941-1.176.288.288,0,0,1-.294-.294c-.882-.588-1.765-.882-2.647-1.471-.294,0-.294-.294-.588-.294a16.314,16.314,0,0,1-2.353-1.765l-.294-.294a26.816,26.816,0,0,1-5-5l-.294-.294c-.588-.882-1.176-1.471-1.765-2.353a1.027,1.027,0,0,1-.294-.588,11.921,11.921,0,0,1-1.471-2.647.288.288,0,0,0-.294-.294,12.292,12.292,0,0,1-1.176-2.941,26.587,26.587,0,0,1-2.059-10.882A2.779,2.779,0,0,0,168.235,32a37.764,37.764,0,0,0-27.059,11.176h0a38.344,38.344,0,0,0,0,54.118h0a39.007,39.007,0,0,0,27.059,11.176,37.764,37.764,0,0,0,27.059-11.176h0a39.007,39.007,0,0,0,11.176-27.059A2.779,2.779,0,0,0,203.529,67.294Zm-14.706,2.941h0a20.588,20.588,0,1,1-20.588-20.588h0a9.2,9.2,0,0,0,1.471,2.941.288.288,0,0,0,.294.294c.588.882.882,1.765,1.471,2.647,0,.294.294.294.294.588.588.882,1.176,1.471,1.765,2.353l.588.588a40.146,40.146,0,0,0,5,5l.588.588c.882.588,1.471,1.176,2.353,1.765.294,0,.294.294.588.294a11.923,11.923,0,0,0,2.647,1.471.288.288,0,0,1,.294.294,17.567,17.567,0,0,0,3.235,1.765Zm-52.647,2.941h5.882a27.71,27.71,0,0,0,5.588,13.529l-4.118,4.118A30.829,30.829,0,0,1,136.176,73.176Zm7.353-23.529,4.118,4.118a27.71,27.71,0,0,0-5.588,13.529h-5.882A30.829,30.829,0,0,1,143.529,49.647Zm8.235,41.176a27.71,27.71,0,0,0,13.529,5.588v5.882a30.829,30.829,0,0,1-17.647-7.353Zm19.412,5.588a27.711,27.711,0,0,0,13.529-5.588l4.118,4.118a31.682,31.682,0,0,1-17.647,7.353Zm-4.706-52.647a25.823,25.823,0,0,0-14.706,5.588l-4.118-3.824a32.581,32.581,0,0,1,17.941-7.353A18.469,18.469,0,0,0,166.471,43.765Zm26.471,47.059-4.118-4.118A25.822,25.822,0,0,0,194.412,72a18.964,18.964,0,0,0,5.882.882A29.1,29.1,0,0,1,192.941,90.824Z" transform="translate(-82.206 -20.235)"/>
      <path id="Path_188" data-name="Path 188" class="cls-2" d="M46.647,96.882,34.882,108.647a2.843,2.843,0,0,0,0,4.118,2.843,2.843,0,0,0,4.118,0L50.765,101a2.912,2.912,0,1,0-4.118-4.118Z" transform="translate(-21.5 -60.706)"/>
      <path id="Path_189" data-name="Path 189" class="cls-2" d="M78.647,128.882,66.882,140.647a2.843,2.843,0,0,0,0,4.118,2.843,2.843,0,0,0,4.118,0L82.765,133a2.912,2.912,0,0,0-4.118-4.118Z" transform="translate(-41.735 -80.941)"/>
    </g>
  </g>
</svg>
