<?xml version="1.0" encoding="iso-8859-1"?>
<!-- Generator: Adobe Illustrator 18.1.1, SVG Export Plug-In . SVG Version: 6.00 Build 0)  -->
<svg xmlns="http://www.w3.org/2000/svg" xmlns:xlink="http://www.w3.org/1999/xlink" version="1.1" id="Capa_1" x="0px" y="0px" viewBox="0 0 478.165 478.165" style="enable-background:new 0 0 478.165 478.165;" xml:space="preserve" width="512px" height="512px">
<g>
	<path id="WhatsApp" d="M478.165,232.946c0,128.567-105.057,232.966-234.679,232.966c-41.102,0-79.814-10.599-113.445-28.969   L0,478.165l42.437-125.04c-21.438-35.065-33.77-76.207-33.77-120.159C8.667,104.34,113.763,0,243.485,0   C373.108,0,478.165,104.34,478.165,232.946z M243.485,37.098c-108.802,0-197.422,87.803-197.422,195.868   c0,42.915,13.986,82.603,37.576,114.879l-24.586,72.542l75.849-23.968c31.121,20.481,68.457,32.296,108.583,32.296   c108.723,0,197.323-87.843,197.323-195.908C440.808,124.921,352.208,37.098,243.485,37.098z M361.931,286.62   c-1.395-2.331-5.22-3.746-10.898-6.814c-5.917-2.849-34.089-16.497-39.508-18.37c-5.16-1.913-8.986-2.849-12.811,2.829   c-4.005,5.638-14.903,18.629-18.23,22.354c-3.546,3.785-6.854,4.264-12.552,1.435c-5.618-2.809-24.267-8.866-46.203-28.391   c-17.055-15.042-28.67-33.711-31.997-39.508c-3.427-5.758-0.398-8.826,2.471-11.635c2.69-2.59,5.778-6.734,8.627-10.041   c2.969-3.287,3.905-5.638,5.798-9.424c1.913-3.905,0.936-7.192-0.478-10.141c-1.415-2.849-13.01-30.881-17.752-42.337   c-4.841-11.416-9.543-9.523-12.871-9.523c-3.467,0-7.212-0.478-11.117-0.478c-3.785,0-10.041,1.395-15.381,7.192   c-5.2,5.658-20.123,19.465-20.123,47.597c0,28.052,20.601,55.308,23.55,59.053c2.869,3.785,39.747,63.197,98.303,86.07   c58.476,22.872,58.476,15.321,69.115,14.365c10.38-0.956,34.069-13.867,38.811-27.096   C363.345,300.307,363.345,288.991,361.931,286.62z" fill="#FFFFFF"/>
</g>
<g>
</g>
<g>
</g>
<g>
</g>
<g>
</g>
<g>
</g>
<g>
</g>
<g>
</g>
<g>
</g>
<g>
</g>
<g>
</g>
<g>
</g>
<g>
</g>
<g>
</g>
<g>
</g>
<g>
</g>
</svg>
