<svg xmlns="http://www.w3.org/2000/svg" viewBox="370 4326 78 98.338">
  <defs>
    <style>
      .cls-1 {
        fill: #00aeff;
        opacity: 0.6;
      }

      .cls-2 {
        fill: #003c58;
      }
    </style>
  </defs>
  <g id="Group_182" data-name="Group 182" transform="translate(369.95 4325.95)">
    <path id="Path_200" data-name="Path 200" class="cls-1" d="M8.976,74.768a3.416,3.416,0,0,0,0,4.833l2.353,2.353a3.431,3.431,0,0,1,.742,3.73L10.8,88.757a3.43,3.43,0,0,0,1.844,4.472l3.285,1.314A3.543,3.543,0,0,1,18.154,97.7v3.455a3.015,3.015,0,0,0,3.179,3.179h3.328a3.53,3.53,0,0,1,3.158,2.247l1.272,3.137a3.443,3.443,0,0,0,4.472,1.886l3.179-1.293a3.4,3.4,0,0,1,3.73.763l2.416,2.438a3.416,3.416,0,0,0,4.833,0l2.353-2.353a3.431,3.431,0,0,1,3.73-.742l3.073,1.272a3.43,3.43,0,0,0,4.472-1.844l1.314-3.285a3.543,3.543,0,0,1,3.158-2.226h3.412a3.026,3.026,0,0,0,3.179-3.179V97.829a3.53,3.53,0,0,1,2.247-3.158L77.8,93.4a3.443,3.443,0,0,0,1.886-4.472l-1.293-3.179a3.4,3.4,0,0,1,.763-3.73L81.593,79.6a3.416,3.416,0,0,0,0-4.833L79.24,72.416a3.431,3.431,0,0,1-.742-3.73l1.272-3.073a3.43,3.43,0,0,0-1.844-4.472l-3.285-1.314a3.543,3.543,0,0,1-2.226-3.158V53.233a3.015,3.015,0,0,0-3.179-3.179H65.908a3.53,3.53,0,0,1-3.158-2.247L61.478,44.67a3.443,3.443,0,0,0-4.472-1.886l-3.179,1.293a3.4,3.4,0,0,1-3.73-.763L47.68,40.876a3.416,3.416,0,0,0-4.833,0l-2.353,2.353a3.431,3.431,0,0,1-3.73.742L33.691,42.7a3.43,3.43,0,0,0-4.472,1.844L27.9,47.829a3.543,3.543,0,0,1-3.158,2.226H21.312a3.015,3.015,0,0,0-3.179,3.179v3.328a3.53,3.53,0,0,1-2.247,3.158l-3.137,1.272a3.443,3.443,0,0,0-1.886,4.472l1.293,3.179a3.4,3.4,0,0,1-.763,3.73Zm36.308-18.1A20.539,20.539,0,1,1,24.746,77.206,20.543,20.543,0,0,1,45.285,56.667Z" transform="translate(-6.245 -31.384)"/>
    <g id="Group_181" data-name="Group 181" transform="translate(0.05 0.05)">
      <path id="Path_201" data-name="Path 201" class="cls-2" d="M1.544,35.415a5.143,5.143,0,0,0,0,7.249L3.9,45.017A1.766,1.766,0,0,1,4.279,46.9L3.007,49.976a5.121,5.121,0,0,0,2.777,6.7l3.264,1.314a1.894,1.894,0,0,1,1.187,1.59V62.99a4.71,4.71,0,0,0,4.875,4.875h1.908V96.692a1.678,1.678,0,0,0,.7,1.378,1.708,1.708,0,0,0,1.526.233l19.818-6.613L58.879,98.3a1.54,1.54,0,0,0,.53.085,1.684,1.684,0,0,0,1.7-1.7V67.866h1.908a4.722,4.722,0,0,0,4.875-4.875V59.663a1.868,1.868,0,0,1,1.187-1.59L72.211,56.8a5.135,5.135,0,0,0,2.819-6.677l-1.293-3.179a1.739,1.739,0,0,1,.382-1.865l2.438-2.416h0a5.143,5.143,0,0,0,0-7.249L74.2,33.062a1.766,1.766,0,0,1-.382-1.886L75.093,28.1a5.035,5.035,0,0,0,0-3.921A5.1,5.1,0,0,0,72.317,21.4L69.052,20.09a1.894,1.894,0,0,1-1.187-1.59V15.067a4.722,4.722,0,0,0-4.875-4.875H59.663a1.809,1.809,0,0,1-1.59-1.187L56.8,5.868a5.135,5.135,0,0,0-6.677-2.819L46.945,4.342a1.774,1.774,0,0,1-1.886-.382L42.643,1.544a5.143,5.143,0,0,0-7.249,0L33.041,3.9a1.766,1.766,0,0,1-1.886.382L28.081,3.007a5.121,5.121,0,0,0-6.7,2.777L20.069,9.048a1.894,1.894,0,0,1-1.59,1.187H15.067a4.722,4.722,0,0,0-4.875,4.875v3.328a1.868,1.868,0,0,1-1.187,1.59L5.868,21.3a5.135,5.135,0,0,0-2.819,6.677l1.293,3.179a1.782,1.782,0,0,1-.382,1.886ZM39.569,88.3a1.877,1.877,0,0,0-1.081,0l-18.1,6.041V70.006l.869,2.162a5.135,5.135,0,0,0,6.677,2.819l3.179-1.293A1.774,1.774,0,0,1,33,74.076l2.416,2.438a5.117,5.117,0,0,0,7.249,0l2.353-2.353a1.766,1.766,0,0,1,1.886-.382l3.073,1.272a5.121,5.121,0,0,0,6.7-2.777l1.017-2.565V94.3ZM6.356,35.394A5.1,5.1,0,0,0,7.479,29.84L6.186,26.661a1.742,1.742,0,0,1,.954-2.247l3.137-1.272A5.277,5.277,0,0,0,13.6,18.395V15.067a1.341,1.341,0,0,1,1.484-1.484h3.434A5.239,5.239,0,0,0,23.249,10.3l1.314-3.264A1.748,1.748,0,0,1,26.831,6.1L29.9,7.373a5.124,5.124,0,0,0,5.6-1.1l2.353-2.353a1.714,1.714,0,0,1,2.438,0l2.416,2.438A5.1,5.1,0,0,0,48.26,7.479l3.179-1.293a1.742,1.742,0,0,1,2.247.954l1.272,3.137a5.238,5.238,0,0,0,4.727,3.307H62.99a1.341,1.341,0,0,1,1.484,1.484V18.5a5.239,5.239,0,0,0,3.285,4.727l3.264,1.314a1.679,1.679,0,0,1,.933.933,1.761,1.761,0,0,1,0,1.314l-1.272,3.073a5.124,5.124,0,0,0,1.1,5.6l2.353,2.353a1.714,1.714,0,0,1,0,2.438L71.7,42.685a5.1,5.1,0,0,0-1.123,5.553l1.293,3.179a1.742,1.742,0,0,1-.954,2.247l-3.137,1.272a5.238,5.238,0,0,0-3.307,4.727V62.99a1.341,1.341,0,0,1-1.484,1.484H59.557A5.239,5.239,0,0,0,54.83,67.76l-1.314,3.264a1.748,1.748,0,0,1-2.268.933l-3.073-1.272a5.124,5.124,0,0,0-5.6,1.1l-2.353,2.353a1.714,1.714,0,0,1-2.437,0L35.373,71.7a5.137,5.137,0,0,0-3.624-1.5,5.048,5.048,0,0,0-1.929.382L26.64,71.871a1.742,1.742,0,0,1-2.247-.954l-1.272-3.137a5.238,5.238,0,0,0-4.727-3.307H15.067a1.341,1.341,0,0,1-1.484-1.484V59.557A5.239,5.239,0,0,0,10.3,54.83L7.034,53.516A1.748,1.748,0,0,1,6.1,51.248l1.272-3.073a5.124,5.124,0,0,0-1.1-5.6L3.918,40.226a1.714,1.714,0,0,1,0-2.437Z" transform="translate(-0.05 -0.05)"/>
      <path id="Path_202" data-name="Path 202" class="cls-2" d="M101.334,123.547A22.224,22.224,0,1,0,79.1,101.334,22.257,22.257,0,0,0,101.334,123.547Zm0-41.056a18.832,18.832,0,1,1-18.843,18.843A18.87,18.87,0,0,1,101.334,82.491Z" transform="translate(-62.345 -62.345)"/>
      <path id="Path_203" data-name="Path 203" class="cls-2" d="M139.87,189.565a1.7,1.7,0,0,0,0-3.391,8.476,8.476,0,0,1-8.478-8.478,1.7,1.7,0,0,0-3.391,0A11.891,11.891,0,0,0,139.87,189.565Z" transform="translate(-100.88 -138.706)"/>
      <path id="Path_204" data-name="Path 204" class="cls-2" d="M177.7,131.391a8.476,8.476,0,0,1,8.478,8.478,1.7,1.7,0,1,0,3.391,0A11.877,11.877,0,0,0,177.7,128a1.7,1.7,0,0,0,0,3.391Z" transform="translate(-138.706 -100.88)"/>
      <path id="Path_205" data-name="Path 205" class="cls-2" d="M113.7,384a1.7,1.7,0,0,0-1.7,1.7v6.783a1.7,1.7,0,1,0,3.391,0V385.7A1.687,1.687,0,0,0,113.7,384Z" transform="translate(-88.271 -302.619)"/>
    </g>
  </g>
</svg>
