<?xml version="1.0" encoding="iso-8859-1"?>
<!-- Generator: Adobe Illustrator 14.0.0, SVG Export Plug-In . SVG Version: 6.00 Build 43363)  -->
<!DOCTYPE svg PUBLIC "-//W3C//DTD SVG 1.1//EN" "http://www.w3.org/Graphics/SVG/1.1/DTD/svg11.dtd">
<svg version="1.1" xmlns="http://www.w3.org/2000/svg" xmlns:xlink="http://www.w3.org/1999/xlink" x="0px" y="0px"
	 width="841.89px" height="595.28px" viewBox="0 0 841.89 595.28" style="enable-background:new 0 0 841.89 595.28;"
	 xml:space="preserve">
<g id="Vidro" style="display:none;">
	<g style="display:inline;">
		<g>
			<path style="fill:none;stroke:#000000;stroke-width:9;" d="M559.545,526.021L426.672,310.48V171.492
				c45.924,0.676,40.785-11.287,40.785-22.069c0-13.676,3.031-18.218-89.147-18.292c-95.759-0.074-91.357,5.351-91.357,19.027
				c0,10.273,0,21.277,39.625,20.816V310.48L215.046,526.212c-31.183,55.95,12.472,63.097,12.472,63.097h315.517
				C587.979,570.047,559.545,526.021,559.545,526.021z"/>
			<path style="fill:#29ABE2;" d="M443.977,31.656c0,14.181-12.951,25.678-28.93,25.678c-15.978,0-28.93-11.497-28.93-25.678
				c0-14.185,12.952-25.685,28.93-25.685C431.025,5.971,443.977,17.471,443.977,31.656z"/>
			<ellipse style="fill:#29ABE2;" cx="349.047" cy="82.101" rx="17.885" ry="16.51"/>
			<ellipse style="fill:#29ABE2;" cx="417.379" cy="93.749" rx="15.594" ry="16.049"/>
		</g>
		<g id="XMLID_1_">
			<g>
				<path style="fill:#29ABE2;" d="M522.012,534.623c0,0,15.187,27.002-12.655,27.002s-238.77,0-238.77,0
					s-32.904,5.062-16.867-32.063C269.746,492.436,327.96,383.6,327.96,383.6s23.914-26.991,58.782,11.815
					c34.868,38.806,52.585-1.691,52.585-1.691L522.012,534.623z"/>
			</g>
			<g>
				<path style="fill:none;stroke:#29ABE2;stroke-width:12;" d="M439.327,393.724l82.685,140.899c0,0,15.187,27.002-12.655,27.002
					s-238.77,0-238.77,0s-32.904,5.062-16.867-32.063C269.746,492.436,327.96,383.6,327.96,383.6s23.914-26.991,58.782,11.815
					C421.61,434.221,439.327,393.724,439.327,393.724z"/>
			</g>
		</g>
	</g>
</g>
<g id="Chapeleira" style="display:none;">
	<g style="display:inline;">
		<g id="XMLID_2_">
			<g>
				<polygon style="fill:#343434;" points="792.196,164.236 792.196,196.338 415.947,46.484 46.209,190.224 46.209,158.122 
					415.947,14.382 				"/>
				<polygon points="792.196,196.338 419.203,459.269 46.209,190.224 				"/>
				<polygon points="792.196,196.338 46.209,190.224 415.947,46.484 				"/>
			</g>
			<g>
			</g>
		</g>
		<g id="XMLID_3_">
			<g>
				<path style="fill:#444444;" d="M677.547,221.301v169.177H160.859V221.301c0,0,34.135-57.065,258.344-57.065
					S677.547,221.301,677.547,221.301z"/>
			</g>
			<g>
			</g>
		</g>
		<path d="M677.546,390.478c0,37.989-68.534,68.789-258.344,68.789c-198.725,0-258.343-30.8-258.343-68.789
			s115.665-68.793,258.343-68.793C561.881,321.685,677.546,352.488,677.546,390.478z"/>
		<polygon style="fill:#29ABE2;" points="591.941,507.675 591.941,84.476 573.088,76.965 573.088,507.675 556.78,507.675 
			556.78,587.164 611.812,587.164 611.812,507.675 		"/>
	</g>
</g>
<g id="on">
	<g>
		
			<rect x="365.844" y="287.486" transform="matrix(0.8933 0.4494 -0.4494 0.8933 207.3003 -128.9448)" style="fill:#29ABE2;" width="18.813" height="169.37"/>
		
			<rect x="263.997" y="567.813" transform="matrix(0.8933 0.4495 -0.4495 0.8933 287.9136 -61.4679)" style="fill:#29ABE2;" width="18.809" height="15.538"/>
		<path style="fill:#29ABE2;" d="M421.865,142.639c-75.668,0-137.01,61.341-137.01,137.012c0,32.687,14.948,67.644,34.052,91.194
			l13.027-9.708c-17.027-20.827-29.957-51.547-29.957-80.548c0-66.75,54.113-120.864,120.864-120.864
			c66.749,0,120.862,54.114,120.862,120.864c0,66.75-54.113,120.864-120.862,120.864c-3.597,0-5.151-0.01-8.667-0.318l-0.993,15.526
			c3.56,0.279,5.052,0,8.684,0c75.672,0,137.013-61.341,137.013-137.01C558.878,203.98,497.537,142.639,421.865,142.639z"/>
		<g id="XMLID_5_">
			<g>
				<polygon style="fill:#59585D;" points="368.073,477.221 372.672,495.698 280.767,459.388 298.59,449.853 				"/>
				<polygon style="fill:#59585D;" points="352.907,502.188 357.496,520.675 265.601,484.354 283.424,474.819 				"/>
				<polygon style="fill:#59585D;" points="338.804,530.68 343.393,549.167 251.498,512.856 269.321,503.321 				"/>
				<polygon style="fill:#59585D;" points="322.054,555.86 326.643,574.338 234.749,538.027 252.571,528.492 				"/>
			</g>
			<g>
			</g>
		</g>
		<g id="XMLID_4_">
			<g>
				<path style="fill:#59585D;" d="M685.054,277.009c0.327,3.465-5.018,6.275-8.952,6.643l-47.082,12.243
					c-1.717,15.156-5.059,29.821-9.872,43.801l38.344,30.658c3.495,1.911,5.039,8.359,3.362,11.415l-13.592,24.905
					c-1.676,3.056-7.726,2.371-11.231,0.46l-44.649-13.848c-9.167,12.714-19.744,24.354-31.496,34.676l21.481,46.959
					c2.248,3.249,0.694,9.657-2.167,11.64l-23.331,16.157c-2.861,1.982-7.931-1.298-10.179-4.548l-36.146-37.557
					c-12.049,5.528-24.731,9.934-37.895,13.07c0.235,0.705,0.378,1.451,0.398,2.238l-7.572,53.326
					c0.133,3.955-4.63,8.513-8.114,8.636l-28.359,1.012c-3.475,0.122-5.969-5.376-6.112-9.331l-11.752-50.648
					c-0.01-0.286,0.01-0.582,0.041-0.879l2.657-50.975c3.137,0.194,6.295,0.307,9.474,0.307c82.687,0,149.717-67.03,149.717-149.717
					c0-82.687-67.03-149.717-149.717-149.717c-82.687,0-149.717,67.03-149.717,149.717c0,38.487,14.532,73.581,38.395,100.101
					l-39.141,33.888c-0.296,0.286-0.583,0.542-0.858,0.746l-42.595,19.969c-3.209,2.371-9.105,3.884-11.18,1.094l-16.893-22.8
					c-2.074-2.8-1.441-9.402,1.768-11.772l34.798-36.72c-6.204-12.876-11.119-26.499-14.573-40.684l-50.566-5.928
					c-3.945,0.174-9.627-1.87-9.78-5.354l-1.257-28.339c-0.153-3.485,4.016-8.595,7.971-8.769l48.022-10.781
					c0.95-19.642,4.629-38.559,10.669-56.392l-40.02-22.125c-3.72-1.329-8.196-5.375-7.021-8.656l9.576-26.714
					c1.175-3.281,6.97-6.428,10.689-5.1l53.111,8.993c0.307,0.112,0.593,0.245,0.879,0.378
					c8.615-12.131,18.518-23.291,29.494-33.295L264.6,73.159c-2.095-3.342-3.117-9.3-0.164-11.15l24.047-15.053
					c2.954-1.85,9.453-0.746,11.558,2.606l33.122,36.565c14.042-6.816,28.982-12.09,44.578-15.595
					c-0.031-0.296-0.051-0.593-0.041-0.889l8.779-51.783c0.031-3.945,2.371-9.515,5.856-9.484l28.369,0.205
					c3.485,0.031,8.38,4.456,8.35,8.4l8.359,48.962c17.148,1.145,33.714,4.384,49.463,9.453l25.631-37.598
					c1.614-3.607,7.899-5.601,11.077-4.17l25.896,11.62c3.168,1.42,2.984,7.46,1.37,11.057l-11.865,44.415
					c13.418,9.055,25.713,19.642,36.647,31.507l48.247-15.217c3.505-1.829,9.678,0.5,11.292,3.587l13.152,25.14
					c1.615,3.086-2.269,7.716-5.773,9.545l-33.694,25.232c8.769,17.66,15.095,36.75,18.518,56.831l45.938,3.822
					c3.935-0.368,8.769,4.119,9.096,7.593L685.054,277.009z"/>
			</g>
			<g>
			</g>
		</g>
	</g>
</g>
<g id="Camada_4" style="display:none;">
	
		<image style="display:inline;overflow:visible;" width="626" height="626" xlink:href="All 3.jpg"  transform="matrix(0.9509 0 0 0.9509 151.4775 -0.0024)">
	</image>
</g>
<g id="Camada_6" style="display:none;">
	<circle style="display:inline;fill:#EE9805;" cx="222.565" cy="302.094" r="63.375"/>
	<circle style="display:inline;fill:#E0364B;" cx="373.365" cy="304.094" r="63.375"/>
	<g id="XMLID_17_" style="display:inline;">
		<g>
			<path style="fill:#BC3149;" d="M373.365,240.719c35,0,63.37,28.37,63.37,63.37c0,35-28.37,63.381-63.37,63.381V240.719z"/>
		</g>
		<g>
		</g>
	</g>
	<g id="XMLID_18_" style="display:inline;">
		<g>
			<path style="fill:#C17208;" d="M285.935,302.088c0,35-28.37,63.381-63.37,63.381v-126.75
				C257.565,238.718,285.935,267.088,285.935,302.088z"/>
		</g>
		<g>
		</g>
	</g>
	<circle style="display:inline;fill:#13AA0B;" cx="676.614" cy="294.631" r="63.375"/>
	<g id="XMLID_55_" style="display:inline;">
		<g>
			<path style="fill:#149309;" d="M676.615,231.256c35,0,63.37,28.37,63.37,63.37c0,35-28.37,63.38-63.37,63.38V231.256z"/>
		</g>
		<g>
		</g>
	</g>
	<g id="XMLID_45_" style="display:inline;">
		<g>
			<path style="fill:#D3D30D;" d="M525.992,232.252c35,0,63.37,28.38,63.37,63.38s-28.37,63.38-63.37,63.38
				s-63.38-28.38-63.38-63.38S490.992,232.252,525.992,232.252z"/>
		</g>
		<g>
		</g>
	</g>
	<g id="XMLID_60_" style="display:inline;">
		<g>
			<path style="fill:#9EA508;" d="M525.989,232.257c35,0,63.37,28.37,63.37,63.37c0,35-28.37,63.38-63.37,63.38V232.257z"/>
		</g>
		<g>
		</g>
	</g>
</g>
<g id="Camada_5" style="display:none;">
	<g style="display:inline;">
		<g id="XMLID_12_">
			<g>
				<path style="fill:#F6D5BC;" d="M246.46,287.84c2.35,0,4.25,2.8,4.25,6.25c0,3.45-1.9,6.25-4.25,6.25c-1.03,0-1.83-0.1-2.44-0.28
					c-1.22,10.44-6.05,17.04-13.43,19.65v20.79h-17v-21.18c-6.98-2.271-10.27-7.11-12.06-19.34c-0.66,0.39-1.66,0.609-3.19,0.609
					c-2.35,0-4.25-2.79-4.25-6.25c0-3.45,1.9-6.25,4.25-6.25c0.76,0,1.48,0.31,2.1,0.83c-1.41-28.88,12.41-22.67,23.65-22.67
					c11.19,0,18.94,1.71,20.09,22.57C244.84,288.21,245.62,287.84,246.46,287.84z"/>
			</g>
			<g>
			</g>
		</g>
		<g id="XMLID_15_">
			<g>
				<polygon style="fill:#EBC0A8;" points="230.59,319.69 230.59,326.96 222.366,334.25 222.442,318.5 230.59,318.5 				"/>
			</g>
			<g>
			</g>
		</g>
		<g id="XMLID_8_">
			<g>
				<path style="fill:#BECFD8;" d="M184.59,352.95c2.5-12,6.17-17.7,6.17-17.7c3.75-3.5,19.5-4.75,19.5-4.75h24.25
					c0,0,12.75,1,18,4.5s6.53,18.81,6.53,18.81s-13.29,11.66-37.03,11.66C197.34,365.47,184.59,352.95,184.59,352.95z"/>
			</g>
			<g>
			</g>
		</g>
		<g id="XMLID_9_">
			<g>
				<path style="fill:#FFFBED;" d="M214.84,340.5c0,0-2.25-8.75-4.5-10s2.25-3.75,2.25-3.75s8,1.5,9.5,3.75L214.84,340.5z"/>
				<path style="fill:#FFFBED;" d="M231.59,326.75c0,0,4.5,2.5,2.25,3.75s-4.5,10-4.5,10l-7.25-10
					C223.59,328.25,231.59,326.75,231.59,326.75z"/>
			</g>
			<g>
			</g>
		</g>
		<g id="XMLID_6_">
			<g>
				<rect x="202.09" y="354.75" style="fill:#83959F;" width="11.5" height="3.25"/>
			</g>
			<g>
			</g>
		</g>
		<g id="XMLID_7_">
			<g>
				<rect x="230.59" y="354.75" style="fill:#83959F;" width="11.5" height="3.25"/>
			</g>
			<g>
			</g>
		</g>
		<g id="XMLID_10_">
			<g>
				<polygon style="fill:#1D9F99;" points="225.56,357.375 222.06,364.375 219.24,357.375 220.56,335.625 218.3,335.725 
					222.089,330.495 225.72,335.495 223.72,335.995 				"/>
			</g>
			<g>
			</g>
		</g>
		<g id="XMLID_11_">
			<g>
				<path style="fill:#EBC0A8;" d="M250.32,291.47c1.22,5.96-1,7.24-1,7.24c-1.08,2.31-5.3,1.35-5.3,1.35
					c-0.69,8.19-4.88,13.421-4.88,13.421c-6.08,8.22-16.74,7.52-16.74,7.52v-52.75l15.88,1.82c6.31,6.7,5.9,18.75,5.9,18.75
					C248.4,285.65,250.32,291.47,250.32,291.47z"/>
			</g>
			<g>
			</g>
		</g>
		<g id="XMLID_13_">
			<g>
				<path style="fill:#8B5F3B;" d="M244.84,268l1.62,19.84l-2.28,0.98l-2.09-0.57V295h-1.5v-6.25l-2.25-2.5V283l1.5-1.75l-0.25-4.75
					c0,0-3.25-6-17.25-6.5s-17.5,8.75-17.5,8.75l1.25,3.5l-0.25,4.25l-1.5,1.25l-0.5,7.25h-1.75v-7l-1.65,0.92l-2.1-0.83V271
					c0,0,9.18-17,24.09-16C237.34,256,244.84,268,244.84,268z"/>
			</g>
			<g>
			</g>
		</g>
		<g id="XMLID_14_">
			<g>
				<path style="fill:#FFFBED;" d="M214.72,307.12h15.37c0,0,0,4-7.69,4C214.72,311.12,214.72,307.12,214.72,307.12z"/>
			</g>
			<g>
			</g>
		</g>
	</g>
	<g id="XMLID_35_" style="display:inline;">
		<g>
			<path style="fill:#A58C7C;" d="M397.46,289.84c2.35,0,4.25,2.8,4.25,6.25c0,3.45-1.9,6.25-4.25,6.25c-1.03,0-1.83-0.1-2.44-0.28
				c-1.22,10.44-6.05,17.04-13.43,19.65v20.79h-17v-21.18c-6.98-2.271-10.27-7.11-12.06-19.34c-0.66,0.39-1.66,0.609-3.19,0.609
				c-2.35,0-4.25-2.79-4.25-6.25c0-3.45,1.9-6.25,4.25-6.25c0.76,0,1.48,0.31,2.1,0.83c-1.41-28.88,12.41-22.67,23.65-22.67
				c11.19,0,18.94,1.71,20.09,22.57C395.84,290.21,396.62,289.84,397.46,289.84z"/>
		</g>
		<g>
		</g>
	</g>
	<g id="XMLID_34_" style="display:inline;">
		<g>
			<polygon style="fill:#93786D;" points="381.59,321.69 381.59,328.96 373.365,336.25 373.442,320.5 381.59,320.5 			"/>
		</g>
		<g>
		</g>
	</g>
	<g id="XMLID_33_" style="display:inline;">
		<g>
			<path style="fill:#13A2E2;" d="M403.51,337c5.25,3.5,6.53,18.81,6.53,18.81s-13.29,11.66-37.03,11.66
				c-24.67,0-37.42-12.52-37.42-12.52c2.5-12,6.17-17.7,6.17-17.7c3.75-3.5,19.5-4.75,19.5-4.75h24.25
				C385.51,332.5,398.26,333.5,403.51,337z"/>
		</g>
		<g>
		</g>
	</g>
	<g id="XMLID_32_" style="display:inline;">
		<g>
			<path style="fill:#FFFBED;" d="M382.59,328.75c0,0,4.5,2.5,2.25,3.75s-4.5,10-4.5,10l-7.25-10
				C374.59,330.25,382.59,328.75,382.59,328.75z"/>
			<path style="fill:#FFFBED;" d="M373.09,332.5l-7.25,10c0,0-2.25-8.75-4.5-10s2.25-3.75,2.25-3.75S371.59,330.25,373.09,332.5z"/>
		</g>
		<g>
		</g>
	</g>
	<g id="XMLID_31_" style="display:inline;">
		<g>
			<rect x="353.09" y="355.75" style="fill:#FFFBED;" width="11.5" height="3.25"/>
		</g>
		<g>
		</g>
	</g>
	<g id="XMLID_30_" style="display:inline;">
		<g>
			<rect x="381.59" y="355.75" style="fill:#FFFBED;" width="11.5" height="3.25"/>
		</g>
		<g>
		</g>
	</g>
	<g id="XMLID_29_" style="display:inline;">
		<g>
			<polygon style="fill:#053B6D;" points="373.089,332.495 376.72,337.495 374.72,337.995 376.56,359.375 373.06,366.375 
				370.24,359.375 371.56,337.625 369.3,337.725 			"/>
		</g>
		<g>
		</g>
	</g>
	<g id="XMLID_28_" style="display:inline;">
		<g>
			<path style="fill:#93786D;" d="M401.32,293.47c1.22,5.959-1,7.24-1,7.24c-1.08,2.31-5.3,1.35-5.3,1.35
				c-0.69,8.19-4.88,13.421-4.88,13.421c-6.08,8.22-16.74,7.52-16.74,7.52v-52.75l15.88,1.82c6.31,6.7,5.9,18.75,5.9,18.75
				C399.4,287.65,401.32,293.47,401.32,293.47z"/>
		</g>
		<g>
		</g>
	</g>
	<g id="XMLID_27_" style="display:inline;">
		<g>
			<path style="fill:#0C0601;" d="M395.84,270l1.62,19.84l-2.28,0.98l-2.09-0.57V297h-1.5v-6.25l-2.25-2.5V285l1.5-1.75l-0.25-4.75
				c0,0-3.25-6-17.25-6.5s-17.5,8.75-17.5,8.75l1.25,3.5l-0.25,4.25l-1.5,1.25l-0.5,7.25h-1.75v-7l-1.65,0.92l-2.1-0.83V273
				c0,0,9.18-17,24.09-16C388.34,258,395.84,270,395.84,270z"/>
		</g>
		<g>
		</g>
	</g>
	<g id="XMLID_26_" style="display:inline;">
		<g>
			<path style="fill:#FFFBED;" d="M365.72,309.12h15.37c0,0,0,4-7.69,4C365.72,313.12,365.72,309.12,365.72,309.12z"/>
		</g>
		<g>
		</g>
	</g>
	<path style="display:inline;fill:#0C0601;" d="M386.636,260.281c0,0-5.803-2.669-3.636-7.551l-3.966,4.731
		c0,0-1.392-6.05,1.295-11.228l-6.839,9.312c0,0-1.747-6.199,3.637-11.969c0,0-29.36,24.504-27.787,30.299
		C350.913,279.67,386.636,260.281,386.636,260.281z"/>
	<g style="display:inline;">
		<g id="XMLID_59_">
			<g>
				<path style="fill:#F6D5BC;" d="M700.51,280.378c2.35,0,4.25,2.8,4.25,6.25c0,3.45-1.9,6.25-4.25,6.25
					c-1.03,0-1.83-0.1-2.44-0.28c-1.22,10.44-6.05,17.04-13.43,19.65v20.79h-17v-21.18c-6.98-2.271-10.27-7.11-12.06-19.34
					c-0.66,0.39-1.66,0.61-3.19,0.61c-2.35,0-4.25-2.79-4.25-6.25c0-3.45,1.9-6.25,4.25-6.25c0.76,0,1.48,0.31,2.1,0.83
					c-1.409-28.88,12.41-22.67,23.65-22.67c11.19,0,18.94,1.71,20.09,22.57C698.89,280.748,699.67,280.378,700.51,280.378z"/>
			</g>
			<g>
			</g>
		</g>
		<g id="XMLID_58_">
			<g>
				<polygon style="fill:#EBC0A8;" points="684.639,312.229 684.639,319.498 676.415,326.788 676.491,311.038 684.639,311.038 				
					"/>
			</g>
			<g>
			</g>
		</g>
		<g id="XMLID_57_">
			<g>
				<path style="fill:#0A3F56;" d="M706.56,327.538c5.25,3.5,6.53,18.81,6.53,18.81s-13.29,11.66-37.03,11.66
					c-24.67,0-37.42-12.52-37.42-12.52c2.5-12,6.17-17.7,6.17-17.7c3.75-3.5,19.5-4.75,19.5-4.75h24.25
					C688.56,323.038,701.31,324.038,706.56,327.538z"/>
			</g>
			<g>
			</g>
		</g>
		<g id="XMLID_56_">
			<g>
				<path style="fill:#FFFBED;" d="M685.64,319.288c0,0,4.5,2.5,2.25,3.75s-4.5,10-4.5,10l-7.25-10
					C677.64,320.788,685.64,319.288,685.64,319.288z"/>
				<path style="fill:#FFFBED;" d="M676.14,323.038l-7.25,10c0,0-2.25-8.75-4.5-10s2.25-3.75,2.25-3.75
					S674.64,320.788,676.14,323.038z"/>
			</g>
			<g>
			</g>
		</g>
		<g id="XMLID_50_">
			<g>
				<path style="fill:#EBC0A8;" d="M704.37,284.008c1.22,5.96-1,7.24-1,7.24c-1.08,2.31-5.301,1.35-5.301,1.35
					c-0.689,8.19-4.88,13.42-4.88,13.42c-6.08,8.22-16.74,7.52-16.74,7.52v-52.75l15.881,1.82c6.31,6.7,5.899,18.75,5.899,18.75
					C702.449,278.188,704.37,284.008,704.37,284.008z"/>
			</g>
			<g>
			</g>
		</g>
		<g id="XMLID_49_">
			<g>
				<path style="fill:#070301;" d="M686.08,260.918c0.54,0.98,3.42,7.06-9.46,6.6c-14-0.5-17.73,3.77-17.73,3.77l1.25,3.5
					l-0.25,4.25l-1.5,1.25l-0.5,7.25h-1.75v-7l-1.65,0.92l-2.1-0.83v-17.09c0,0,9.18-17,24.09-16s22.41,13,22.41,13l1.62,19.84
					l-2.28,0.98l-2.09-0.57v6.75h-1.5v-6.25l-2.25-2.5v-3.25l1.5-1.75L686.08,260.918z"/>
			</g>
			<g>
			</g>
		</g>
		<g id="XMLID_48_">
			<g>
				<path style="fill:#FFFBED;" d="M668.77,299.658h15.37c0,0,0,4-7.69,4C668.77,303.658,668.77,299.658,668.77,299.658z"/>
			</g>
			<g>
			</g>
		</g>
	</g>
	<g style="display:inline;">
		<g id="XMLID_54_">
			<g>
				<path style="fill:#F6D5BC;" d="M549.884,281.379c2.35,0,4.25,2.8,4.25,6.25c0,3.45-1.9,6.25-4.25,6.25
					c-1.03,0-1.83-0.1-2.44-0.28c-1.22,10.44-6.05,17.04-13.43,19.65v20.79h-17v-21.18c-6.98-2.271-10.27-7.11-12.06-19.34
					c-0.66,0.39-1.66,0.61-3.19,0.61c-2.35,0-4.25-2.79-4.25-6.25c0-3.45,1.9-6.25,4.25-6.25c0.76,0,1.48,0.31,2.1,0.83
					c-1.409-28.88,12.41-22.67,23.65-22.67c11.19,0,18.94,1.71,20.09,22.57C548.264,281.749,549.044,281.379,549.884,281.379z"/>
			</g>
			<g>
			</g>
		</g>
		<g id="XMLID_53_">
			<g>
				<polygon style="fill:#EBC0A8;" points="534.01,313.229 534.01,334.039 525.785,334.039 525.862,312.039 534.01,312.039 				"/>
			</g>
			<g>
			</g>
		</g>
		<g id="XMLID_52_">
			<g>
				<path style="fill:#B70D2A;" d="M555.934,328.539c5.25,3.5,6.53,18.81,6.53,18.81s-13.29,11.66-37.03,11.66
					c-24.67,0-37.42-12.52-37.42-12.52c2.5-12,6.17-17.7,6.17-17.7c3.75-3.5,19.5-4.75,19.5-4.75h3.36
					c0.01,0.14,0.029,0.28,0.05,0.42c0.52,3.54,3.729,6.1,6.93,7.16c1.54,0.52,3.55,0.53,5.08-0.03
					c2.57-0.939,3.811-2.609,4.84-5.08c0-0.83,0.061-1.34,0.07-2.47h3.92C537.934,324.039,550.684,325.039,555.934,328.539z"/>
			</g>
			<g>
			</g>
		</g>
		<g id="XMLID_51_">
			<g>
				<path style="fill:#EBC0A8;" d="M553.744,285.009c1.22,5.96-1,7.24-1,7.24c-1.08,2.31-5.301,1.35-5.301,1.35
					c-0.689,8.19-4.88,13.42-4.88,13.42c-6.08,8.22-16.74,7.52-16.74,7.52v-52.75l15.881,1.82c6.31,6.7,5.899,18.75,5.899,18.75
					C551.823,279.189,553.744,285.009,553.744,285.009z"/>
			</g>
			<g>
			</g>
		</g>
		<g id="XMLID_47_">
			<g>
				<path style="fill:#070301;" d="M525.994,268.519c-11.131-8.5-17.73,3.77-17.73,3.77l1.25,3.5l-0.25,4.25l-1.5,1.25l-0.5,7.25
					h-1.75v-7l-1.65,0.92l-2.1-0.83v-17.09c0,0,9.18-17,24.09-16s22.41,13,22.41,13l1.62,19.84l-2.28,0.98l-2.09-0.57v6.75h-1.5
					v-6.25l-2.25-2.5v-3.25l1.5-1.75l-5.92-9.76C537.344,265.029,530.504,271.969,525.994,268.519z"/>
			</g>
			<g>
			</g>
		</g>
		<g id="XMLID_46_">
			<g>
				<path style="fill:#FFFBED;" d="M518.144,300.659h15.37c0,0,0,4-7.69,4C518.144,304.659,518.144,300.659,518.144,300.659z"/>
			</g>
			<g>
			</g>
		</g>
		<path style="fill:#070301;" d="M532.836,267.632c0,0-2.25,5.083-2.5,7.583s0,0.333,0,0.333s-0.916-7.916,0.75-10.416
			s0.374-0.347,0.374-0.347s-4.124,8.513-4.374,11.18c0,0-1.501-3.999-0.334-5.333c0,0-3.499,3.166-3.416,7.083
			c0,0-1.001-4.999,0.666-8.833c0,0-4.25,2.499-5.333,6.416c0,0-0.166-4.166,0.917-5.666c0,0-9.5,2.833-7.583,6
			c0,0-3.493-1.834-2.173-5.241c4.589-11.842,22.506-8.843,22.506-8.843L532.836,267.632z"/>
	</g>
</g>
<g id="Camada_7" style="display:none;">
	<g id="XMLID_25_" style="display:inline;">
		<g>
			<path style="fill:#D113D6;" d="M373.785,424.958c35,0,63.37,28.38,63.37,63.38s-28.37,63.37-63.37,63.37
				c-35.01,0-63.38-28.37-63.38-63.37S338.774,424.958,373.785,424.958z"/>
		</g>
		<g>
		</g>
	</g>
	<g id="XMLID_24_" style="display:inline;">
		<g>
			<path style="fill:#A30AA3;" d="M373.78,424.962c35,0,63.371,28.369,63.371,63.369s-28.371,63.381-63.371,63.381V424.962z"/>
		</g>
		<g>
		</g>
	</g>
	<path style="display:inline;fill:#860B14;" d="M391.25,490.334c0,0,2.25,0.916,9.5,18.666c0,0,3.5,13.707,0,23.854
		c0,0-35.25,25.604-52.25,0c0,0-8.066-12.104-2.033-24.604s10.283-20.75,10.283-20.75L391.25,490.334z"/>
	<g id="XMLID_20_" style="display:inline;">
		<g>
			<rect x="364" y="498.5" style="fill:#F3D6BB;" width="18.67" height="31"/>
		</g>
		<g>
		</g>
	</g>
	<g id="XMLID_22_" style="display:inline;">
		<g>
			<rect x="373.78" y="500.833" style="fill:#E6C2A8;" width="9.335" height="31"/>
		</g>
		<g>
		</g>
	</g>
	<g id="XMLID_16_" style="display:inline;">
		<g>
			<path style="fill:#F9A41D;" d="M373.33,551.67c-18,0.66-31-8.3-31-8.3l2.67-18.04c4-6.66,19-11.33,19-11.33
				c0.33,10,9.33,12.33,9.33,12.33V551.67z"/>
			<path style="fill:#FF8A1F;" d="M401.67,525.33l2.66,18.67c0,0-13,8.33-31,7.67v-25.34c0,0,9-2.33,9.34-12.33
				C382.67,514,397.67,518.67,401.67,525.33z"/>
		</g>
		<g>
		</g>
	</g>
	<g id="XMLID_19_" style="display:inline;">
		<g>
			<path style="fill:#F3D6BB;" d="M398.27,475.81c2.37,0.471,3.6,4.311,2.74,8.58c-0.83,4.16-3.33,7.17-5.65,6.88
				c-3.86,10.66-11.82,17.99-21.03,17.99c-9.38,0-17.47-7.6-21.24-18.58c-0.23,0.12-0.46,0.221-0.72,0.271
				c-2.36,0.47-4.98-2.601-5.83-6.87c-0.85-4.26,0.38-8.1,2.75-8.58c0.51-0.1,1.04-0.03,1.56,0.18
				c0.41-17.449,10.76-31.42,23.48-31.42c12.74,0,23.1,14.021,23.48,31.5C397.96,475.76,398.12,475.78,398.27,475.81z"/>
		</g>
		<g>
		</g>
	</g>
	<g id="XMLID_21_" style="display:inline;">
		<g>
			<path style="fill:#E6C2A8;" d="M398.27,475.81c2.37,0.471,3.6,4.311,2.74,8.58c-0.83,4.16-3.33,7.17-5.65,6.88
				c-3.86,10.66-11.82,17.99-21.03,17.99c-0.19,0-0.37-0.02-0.55-0.029v-64.95c0.18-0.011,0.36-0.021,0.55-0.021
				c12.74,0,23.1,14.021,23.48,31.5C397.96,475.76,398.12,475.78,398.27,475.81z"/>
		</g>
		<g>
		</g>
	</g>
	<ellipse style="display:inline;fill:#E2F20A;" cx="351.152" cy="488.917" rx="1.25" ry="1.417"/>
	<ellipse style="display:inline;fill:#E2F20A;" cx="396.432" cy="488.917" rx="1.25" ry="1.417"/>
	<path style="display:inline;fill:#FFFFFF;" d="M380,498h-12.25c0,0,1.16,4,5.58,4C373.33,502,379,502.25,380,498z"/>
	<g id="XMLID_23_" style="display:inline;">
		<g>
			<path style="fill:#860B14;" d="M396.43,477.75c0,0-17.93-7.25-18.68-21.25c0,0-0.09,6-19.92,10.25c0,0-6.53,1.25-5.43,10
				c0,0-3.9-1.5-4.65,0c0,0-8.5-30.25,18.25-37s34.75,17,34.75,24.25s-0.92,12.76-0.92,12.76S397.36,474.25,396.43,477.75z"/>
		</g>
		<g>
		</g>
	</g>
	<g id="XMLID_43_" style="display:inline;">
		<g>
			<path style="fill:#19C9F7;" d="M221.37,550.873c-35.01,0-63.38-28.37-63.38-63.37s28.37-63.38,63.38-63.38
				c35,0,63.37,28.38,63.37,63.38S256.37,550.873,221.37,550.873z"/>
		</g>
		<g>
		</g>
	</g>
	<g id="XMLID_42_" style="display:inline;">
		<g>
			<path style="fill:#12A8DD;" d="M221.815,424.127c35,0,63.37,28.369,63.37,63.369s-28.37,63.381-63.37,63.381V424.127z"/>
		</g>
		<g>
		</g>
	</g>
	<g id="XMLID_41_" style="display:inline;">
		<g>
			<rect x="212.035" y="497.665" style="fill:#F3D6BB;" width="18.67" height="31"/>
		</g>
		<g>
		</g>
	</g>
	<g id="XMLID_40_" style="display:inline;">
		<g>
			<rect x="221.815" y="499.998" style="fill:#E6C2A8;" width="9.335" height="31"/>
		</g>
		<g>
		</g>
	</g>
	<g id="XMLID_39_" style="display:inline;">
		<g>
			<path style="fill:#EF2BD3;" d="M231.095,513.165c0,0,14.61,4.67,18.61,11.33l2.66,18.67c0,0-13,8.33-31,7.67v-25.34
				C221.365,525.495,230.765,523.165,231.095,513.165z"/>
			<path style="fill:#F45DD7;" d="M221.365,525.495v25.34c-18,0.66-31-8.3-31-8.3l2.67-18.04c4-6.66,19-11.33,19-11.33
				C212.365,523.165,221.365,525.495,221.365,525.495z"/>
		</g>
		<g>
		</g>
	</g>
	<g id="XMLID_38_" style="display:inline;">
		<g>
			<path style="fill:#F3D6BB;" d="M246.305,474.975c2.37,0.471,3.6,4.311,2.74,8.58c-0.83,4.16-3.33,7.17-5.65,6.88
				c-3.86,10.66-11.82,17.99-21.03,17.99c-9.38,0-17.47-7.6-21.24-18.58c-0.23,0.12-0.46,0.221-0.72,0.271
				c-2.36,0.47-4.98-2.601-5.83-6.87c-0.85-4.26,0.38-8.1,2.75-8.58c0.51-0.1,1.04-0.03,1.56,0.18
				c0.41-17.449,10.76-31.42,23.48-31.42c12.74,0,23.1,14.021,23.48,31.5C245.995,474.925,246.155,474.945,246.305,474.975z"/>
		</g>
		<g>
		</g>
	</g>
	<g id="XMLID_37_" style="display:inline;">
		<g>
			<path style="fill:#E6C2A8;" d="M246.305,474.975c2.37,0.471,3.6,4.311,2.74,8.58c-0.83,4.16-3.33,7.17-5.65,6.88
				c-3.86,10.66-11.82,17.99-21.03,17.99c-0.19,0-0.37-0.02-0.55-0.029v-64.95c0.18-0.011,0.36-0.021,0.55-0.021
				c12.74,0,23.1,14.021,23.48,31.5C245.995,474.925,246.155,474.945,246.305,474.975z"/>
		</g>
		<g>
		</g>
	</g>
	<ellipse style="display:inline;fill:#E2F20A;" cx="199.187" cy="488.082" rx="1.25" ry="1.417"/>
	<ellipse style="display:inline;fill:#E2F20A;" cx="244.467" cy="488.082" rx="1.25" ry="1.417"/>
	<path style="display:inline;fill:#FFFFFF;" d="M228.035,497.165h-12.25c0,0,1.16,4,5.58,4
		C221.365,501.165,227.035,501.415,228.035,497.165z"/>
	<g id="XMLID_36_" style="display:inline;">
		<g>
			<path style="fill:#EAA711;" d="M248.785,463.165c0,7.25-0.92,12.76-0.92,12.76s-2.47-2.51-3.4,0.99c0,0-17.93-7.25-18.68-21.25
				c0,0-0.09,6-19.92,10.25c0,0-6.53,1.25-5.43,10c0,0-3.9-1.5-4.65,0c0,0-8.5-30.25,18.25-37S248.785,455.915,248.785,463.165z"/>
		</g>
		<g>
		</g>
	</g>
	<path style="display:inline;fill:#FFFFFF;" d="M212.072,513.165c0,0-6.667,0.502-9.167,4.502c0,0,14.563,3.832,17.365,11.833
		l1.095-4.005L212.072,513.165z"/>
	<path style="display:inline;fill:#FFFFFF;" d="M231.1,513.165c0,0,6.667,0.502,9.167,4.502c0,0-14.563,3.832-17.365,11.833
		l-1.537-4.005L231.1,513.165z"/>
	<g id="XMLID_44_" style="display:inline;">
		<g>
			<path style="fill:#EAA711;" d="M218.12,440.86l-11.4,15.06l-10.36,2.58c-6.92,10.65-6.48,20.25-6.48,20.25
				c1.79,24.28-8.29,23.53-8.29,23.53c-10.02-1.261-10.71-13.44-10.71-13.44c10.11,20.78,7.8-7.89,7.8-7.89
				c-1.45-19.931,8.01-40.13,8.01-40.13C196.62,421.72,218.12,440.86,218.12,440.86z"/>
		</g>
		<g>
		</g>
	</g>
	<g id="XMLID_68_" style="display:inline;">
		<g>
			<path style="fill:#1AE2E2;" d="M526.09,424.125c35,0,63.37,28.38,63.37,63.38s-28.37,63.37-63.37,63.37
				c-35.01,0-63.38-28.37-63.38-63.37S491.08,424.125,526.09,424.125z"/>
		</g>
		<g>
		</g>
	</g>
	<g id="XMLID_67_" style="display:inline;">
		<g>
			<path style="fill:#0FADB5;" d="M525.99,424.125c35,0,63.37,28.369,63.37,63.369s-28.37,63.381-63.37,63.381V424.125z"/>
		</g>
		<g>
		</g>
	</g>
	<path style="display:inline;fill:#140204;" d="M510.04,480.667c0,0-17.373-4.833-17.04,8.25s4.694,12.082,4.514,11.416
		s-7.513,1.847-7.847,7.257s-0.64,13.076,7.847,12.743c0,0-6.696,1.307-4.514,9.167c0,0,5.001,20.833,34.667,6.833
		c0,0,17.999-4.666,20.666-12.666c0,0,10.254-4.033,4.627-13.184c0,0,6.351-2.267,1.687-11.983c0,0,10.686-5.924,3.029-15.167
		c0,0-3.595-8.364-12.302-8.849L510.04,480.667z"/>
	<g id="XMLID_66_" style="display:inline;">
		<g>
			<rect x="516.21" y="502.003" style="fill:#F3D6BB;" width="18.67" height="31"/>
		</g>
		<g>
		</g>
	</g>
	<g id="XMLID_65_" style="display:inline;">
		<g>
			<rect x="525.99" y="499.163" style="fill:#E6C2A8;" width="9.335" height="31"/>
		</g>
		<g>
		</g>
	</g>
	<g id="XMLID_64_" style="display:inline;">
		<g>
			<path style="fill:#A50A24;" d="M553.88,523.66l2.66,18.67c0,0-13,8.33-31,7.67l-0.3-17.15c0,0,9.75-10.38,10.09-20.38
				C535.33,512.47,549.88,517,553.88,523.66z"/>
			<path style="fill:#F40824;" d="M525.24,532.85l0.3,17.15c-18,0.66-31-8.3-31-8.3l2.67-18.04c4-6.66,19-11.33,19-11.33
				C516.54,522.33,525.24,532.85,525.24,532.85z"/>
		</g>
		<g>
		</g>
	</g>
	<g id="XMLID_63_" style="display:inline;">
		<g>
			<path style="fill:#F3D6BB;" d="M550.479,474.14c2.37,0.471,3.601,4.311,2.74,8.58c-0.83,4.16-3.33,7.17-5.649,6.88
				c-3.86,10.66-11.82,17.99-21.03,17.99c-9.38,0-17.47-7.6-21.24-18.58c-0.229,0.12-0.46,0.221-0.72,0.271
				c-2.36,0.47-4.98-2.601-5.83-6.87c-0.85-4.26,0.38-8.1,2.75-8.58c0.51-0.1,1.04-0.03,1.56,0.18
				c0.41-17.449,10.761-31.42,23.48-31.42c12.74,0,23.1,14.021,23.479,31.5C550.17,474.09,550.33,474.11,550.479,474.14z"/>
		</g>
		<g>
		</g>
	</g>
	<g id="XMLID_62_" style="display:inline;">
		<g>
			<path style="fill:#E6C2A8;" d="M550.479,474.14c2.37,0.471,3.601,4.311,2.74,8.58c-0.83,4.16-3.33,7.17-5.649,6.88
				c-3.86,10.66-11.82,17.99-21.03,17.99c-0.19,0-0.37-0.02-0.55-0.029v-64.95c0.18-0.011,0.359-0.021,0.55-0.021
				c12.74,0,23.1,14.021,23.479,31.5C550.17,474.09,550.33,474.11,550.479,474.14z"/>
		</g>
		<g>
		</g>
	</g>
	<path style="display:inline;fill:#FFFFFF;" d="M532.21,496.33h-12.25c0,0,1.16,4,5.58,4C525.54,500.33,531.21,500.58,532.21,496.33
		z"/>
	<g id="XMLID_61_" style="display:inline;">
		<g>
			<path style="fill:#190205;" d="M552.04,475.09c0,0-2.47-2.51-3.4,0.99c0,0-14.63-6.41-18.68-21.25c0,0,2.25,21.25-16.63,16.5
				c0,0-9.82-5-8.72,3.75c0,0-3.9-1.5-4.65,0c0,0-8.5-30.25,18.25-37s34.75,17,34.75,24.25S552.04,475.09,552.04,475.09z"/>
		</g>
		<g>
		</g>
	</g>
	<circle style="display:inline;fill:#FFFFFF;" cx="515.167" cy="513.08" r="1.583"/>
	<circle style="display:inline;fill:#FFFFFF;" cx="517.334" cy="517.974" r="1.583"/>
	<circle style="display:inline;fill:#FFFFFF;" cx="516.21" cy="515.641" r="1.583"/>
	<circle style="display:inline;fill:#FFFFFF;" cx="525.987" cy="523.306" r="1.583"/>
	<circle style="display:inline;fill:#FFFFFF;" cx="523.751" cy="523.306" r="1.583"/>
	<circle style="display:inline;fill:#FFFFFF;" cx="521.499" cy="522.64" r="1.583"/>
	<circle style="display:inline;fill:#FFFFFF;" cx="519.916" cy="521.723" r="1.583"/>
	<circle style="display:inline;fill:#FFFFFF;" cx="518.333" cy="520.14" r="1.583"/>
	<circle style="display:inline;fill:#FFFFFF;" cx="535.903" cy="514.058" r="1.583"/>
	<circle style="display:inline;fill:#FFFFFF;" cx="535.325" cy="516.391" r="1.583"/>
	<circle style="display:inline;fill:#FFFFFF;" cx="534.32" cy="518.557" r="1.583"/>
	<circle style="display:inline;fill:#FFFFFF;" cx="532.737" cy="520.557" r="1.583"/>
	<circle style="display:inline;fill:#FFFFFF;" cx="530.657" cy="522.14" r="1.583"/>
	<circle style="display:inline;fill:#FFFFFF;" cx="528.737" cy="523.306" r="1.583"/>
	<g id="XMLID_76_" style="display:inline;">
		<g>
			<path style="fill:#ED6156;" d="M676.42,424.96c35,0,63.37,28.38,63.37,63.38s-28.37,63.37-63.37,63.37
				c-35.01,0-63.38-28.37-63.38-63.37S641.41,424.96,676.42,424.96z"/>
		</g>
		<g>
		</g>
	</g>
	<g id="XMLID_75_" style="display:inline;">
		<g>
			<path style="fill:#F4210B;" d="M676.416,424.964c35,0,63.37,28.369,63.37,63.369s-28.37,63.381-63.37,63.381V424.964z"/>
		</g>
		<g>
		</g>
	</g>
	<g id="XMLID_78_" style="display:inline;">
		<g>
			<path style="fill:#110F44;" d="M697.82,516.33c0,0,3.92,6.05,6.08,16.53c0,0-35.25,25.6-52.25,0c0,0,1.319-11.101,7.35-23.601
				s0.9-21.76,0.9-21.76l34.5,2.84C694.4,490.34,690.57,498.58,697.82,516.33z"/>
		</g>
		<g>
		</g>
	</g>
	<g id="XMLID_74_" style="display:inline;">
		<g>
			<rect x="666.636" y="498.502" style="fill:#F3D6BB;" width="18.67" height="31"/>
		</g>
		<g>
		</g>
	</g>
	<g id="XMLID_73_" style="display:inline;">
		<g>
			<rect x="676.416" y="500.835" style="fill:#E6C2A8;" width="9.335" height="31"/>
		</g>
		<g>
		</g>
	</g>
	<g id="XMLID_72_" style="display:inline;">
		<g>
			<path style="fill:#F40BDE;" d="M685.756,514.002c0,0,14.55,4.67,18.55,11.33l2.66,18.67c0,0-13,8.33-31,7.67v-25.34
				C675.966,526.332,685.416,524.002,685.756,514.002z"/>
			<path style="fill:#EF4DE8;" d="M675.966,526.332v25.34c-18,0.66-31-8.3-31-8.3l2.67-18.04c4-6.66,19-11.33,19-11.33
				C666.966,524.002,675.966,526.332,675.966,526.332z"/>
		</g>
		<g>
		</g>
	</g>
	<g id="XMLID_71_" style="display:inline;">
		<g>
			<path style="fill:#F3D6BB;" d="M700.905,475.812c2.37,0.471,3.601,4.311,2.74,8.58c-0.83,4.16-3.33,7.17-5.649,6.88
				c-3.86,10.66-11.82,17.99-21.03,17.99c-9.38,0-17.47-7.6-21.24-18.58c-0.229,0.12-0.46,0.221-0.72,0.271
				c-2.36,0.47-4.98-2.601-5.83-6.87c-0.85-4.26,0.38-8.1,2.75-8.58c0.51-0.1,1.04-0.03,1.56,0.18
				c0.41-17.449,10.761-31.42,23.48-31.42c12.74,0,23.1,14.021,23.479,31.5C700.596,475.762,700.756,475.782,700.905,475.812z"/>
		</g>
		<g>
		</g>
	</g>
	<g id="XMLID_70_" style="display:inline;">
		<g>
			<path style="fill:#E6C2A8;" d="M700.905,475.812c2.37,0.471,3.601,4.311,2.74,8.58c-0.83,4.16-3.33,7.17-5.649,6.88
				c-3.86,10.66-11.82,17.99-21.03,17.99c-0.19,0-0.37-0.02-0.55-0.029v-64.95c0.18-0.011,0.359-0.021,0.55-0.021
				c12.74,0,23.1,14.021,23.479,31.5C700.596,475.762,700.756,475.782,700.905,475.812z"/>
		</g>
		<g>
		</g>
	</g>
	<path style="display:inline;fill:#FFFFFF;" d="M682.636,498.002h-12.25c0,0,1.16,4,5.58,4
		C675.966,502.002,681.636,502.252,682.636,498.002z"/>
	<g id="XMLID_69_" style="display:inline;">
		<g>
			<path style="fill:#110F44;" d="M698.724,477.752c0,0-17.93-7.25-18.68-21.25c0,0,2.45-2.6-17.38,1.65c0,0-9.07,9.85-7.97,18.6
				c0,0-3.9-1.5-4.65,0c0,0-8.5-30.25,18.25-37s34.75,17,34.75,24.25s-0.92,12.76-0.92,12.76S699.654,474.252,698.724,477.752z"/>
		</g>
		<g>
		</g>
	</g>
	<g id="XMLID_77_" style="display:inline;">
		<g>
			<path style="fill:#110F44;" d="M662.06,459.53c-0.35,0.67-7.09,14.02-4.02,23.279c-0.29-0.579-5.54-11.22-3.95-19.64
				c0,0,12.74-15.67,26.99-7.5c0,0-0.03,15.83-10.53,24.25c0,0,5.5-15.12,3.5-21.27c0,0-3.39,15.989-8.359,22.5
				c0.229-0.511,5.109-11.4,1.859-20.83c0,0-6.5,11.85-5.34,20.85C662.21,481.17,659.28,469.85,662.06,459.53z"/>
		</g>
		<g>
		</g>
	</g>
</g>
</svg>
