<svg xmlns="http://www.w3.org/2000/svg" viewBox="508 3353 103.508 120">
  <defs>
    <style>
      .cls-1 {
        fill: #00aeff;
        opacity: 0.6;
      }

      .cls-2 {
        fill: #003c58;
      }
    </style>
  </defs>
  <g id="Group_158" data-name="Group 158" transform="translate(508 3353)">
    <path id="Path_190" data-name="Path 190" class="cls-1" d="M137.1,170.207a8.3,8.3,0,0,0,8.276-8.276V112.276A8.3,8.3,0,0,0,137.1,104H104v66.207Z" transform="translate(-77.103 -77.103)"/>
    <path id="Path_191" data-name="Path 191" class="cls-2" d="M24.828,84.828v22.759H10.345A10.244,10.244,0,0,0,0,117.931,1.955,1.955,0,0,0,2.069,120H51.724a1.955,1.955,0,0,0,2.069-2.069,10.244,10.244,0,0,0-10.345-10.345H28.966V86.9h20.9A10.407,10.407,0,0,0,60,95.172H97.241a6.5,6.5,0,0,0,5.379-2.9,6.2,6.2,0,0,0,.207-6L90.207,61.034a2.871,2.871,0,0,1,0-1.862l12.621-25.241a6.294,6.294,0,0,0-5.586-9.1h-27.1A10.407,10.407,0,0,0,60,16.552H28.966V12A6.027,6.027,0,0,0,33.1,6.207a6.207,6.207,0,1,0-12.414,0A6.027,6.027,0,0,0,24.828,12V84.828Zm24.414,31.034H4.552a6.027,6.027,0,0,1,5.793-4.138h33.1A6.027,6.027,0,0,1,49.241,115.862ZM98.9,30a1.752,1.752,0,0,1,0,2.069L86.276,57.31a6.59,6.59,0,0,0,0,5.586L98.9,88.138a3.359,3.359,0,0,1,0,2.069,1.712,1.712,0,0,1-1.655.828H60A6.027,6.027,0,0,1,54.207,86.9H60A10.244,10.244,0,0,0,70.345,76.552V53.793h6.207a2.069,2.069,0,1,0,0-4.138H70.345V45.517H84.828a2.069,2.069,0,0,0,0-4.138H70.345V37.241h6.207a2.069,2.069,0,1,0,0-4.138H70.345V28.966h26.9C98.276,28.966,98.9,29.586,98.9,30ZM60,20.69A6.1,6.1,0,0,1,66.207,26.9V76.552A6.1,6.1,0,0,1,60,82.759H28.966V70.345h6.207a2.069,2.069,0,1,0,0-4.138H28.966V62.069H43.448a2.069,2.069,0,1,0,0-4.138H28.966V53.793h6.207a2.069,2.069,0,0,0,0-4.138H28.966V20.69ZM26.9,4.138a1.955,1.955,0,0,1,2.069,2.069,2.069,2.069,0,1,1-4.138,0A1.955,1.955,0,0,1,26.9,4.138Z"/>
  </g>
</svg>
