<?xml version="1.0" encoding="utf-8"?>
<!-- Generator: Adobe Illustrator 20.1.0, SVG Export Plug-In . SVG Version: 6.00 Build 0)  -->
<svg version="1.0" id="Camada_1" xmlns="http://www.w3.org/2000/svg" xmlns:xlink="http://www.w3.org/1999/xlink" x="0px" y="0px"
	 viewBox="0 0 45.1 18.6" style="enable-background:new 0 0 45.1 18.6;" xml:space="preserve">
<style type="text/css">
	.st0{fill:#FFFFFF;}
</style>
<path class="st0" d="M44.2,6.8C44.2,6.8,44.2,6.8,44.2,6.8L44.2,6.8c-0.1-0.1-0.2-0.2-0.3-0.2l-7.5-6.1c-0.5-0.4-1.1-0.5-1.7-0.4
	c-0.5,0.1-1,0.3-1.3,0.7c-0.4,0.4-0.6,1-0.6,1.6c0,0.6,0.3,1.1,0.7,1.4l3.8,3.1H3.1c-1.2,0-2.2,1-2.2,2.2c0,1.2,0.9,2.2,2.2,2.2
	h34.4l-3.8,3.1c-0.5,0.4-0.8,0.9-0.8,1.5c0,0.6,0.2,1.2,0.6,1.6c0.3,0.3,0.8,0.7,1.6,0.7c0.5,0,0.9-0.2,1.1-0.3
	c0.1,0,0.2-0.1,0.2-0.2l7.5-6.1c0.2-0.1,0.4-0.3,0.5-0.5c0.5-0.6,0.7-1.3,0.7-2C45.1,8.2,44.8,7.4,44.2,6.8z"/>
</svg>
