<svg xmlns="http://www.w3.org/2000/svg" viewBox="1296 3373 128.778 100">
  <defs>
    <style>
      .cls-1 {
        fill: #00aeff;
        opacity: 0.6;
      }

      .cls-2 {
        fill: #003c58;
      }
    </style>
  </defs>
  <g id="Group_155" data-name="Group 155" transform="translate(1296 3373)">
    <path id="Path_180" data-name="Path 180" class="cls-1" d="M34.467,40,7.8,66.667l62.222,62.222,62.222-62.222L105.578,40Z" transform="translate(-5.633 -28.889)"/>
    <g id="Group_154" data-name="Group 154" transform="translate(0 0)">
      <path id="Path_181" data-name="Path 181" class="cls-2" d="M.167,29.778c.222.222.222.444.444.667L62.833,92.667h.222l.444.444h.222c.222,0,.444.222.667.222a.816.816,0,0,0,.667-.222h.222a.478.478,0,0,0,.444-.444h.222l62.222-62.222c.222-.222.444-.444.444-.667a2.434,2.434,0,0,0,0-1.778c-.222-.222-.222-.444-.444-.667L101.5.667A2.017,2.017,0,0,0,99.944,0H28.833a2.017,2.017,0,0,0-1.556.667L.611,27.333c-.222.222-.444.444-.444.667A2.454,2.454,0,0,0,.167,29.778Zm121.111-3.111H99.944a2.222,2.222,0,0,0,0,4.444h21.333L71.056,81.333,93.278,29.778h0c0-.222.222-.444.222-.667h0v-.222a.816.816,0,0,0-.222-.667V28c0-.222-.222-.444-.444-.667h0L69.722,4.444H99.056ZM29.722,4.444H63.5L85.722,26.667H82.167a2.222,2.222,0,0,0,0,4.444h5.556L64.389,85.556,41.056,31.111H73.278a2.222,2.222,0,0,0,0-4.444H43.056l14-14a2.2,2.2,0,0,0-3.111-3.111L36.167,27.333h0c-.222.222-.222.444-.444.667v.222a.816.816,0,0,1-.222.667v.222h0a.816.816,0,0,0,.222.667h0L57.944,81.333,7.5,31.111H28.833a2.222,2.222,0,1,0,0-4.444H7.5Z" transform="translate(0 0)"/>
      <path id="Path_182" data-name="Path 182" class="cls-2" d="M96.467,44.667a2.148,2.148,0,0,0,3.111,0l8.889-8.889a2.2,2.2,0,0,0-3.111-3.111l-8.889,8.889A2.148,2.148,0,0,0,96.467,44.667Z" transform="translate(-69.189 -23.111)"/>
      <path id="Path_183" data-name="Path 183" class="cls-2" d="M320.467,35.778l8.889,8.889a2.148,2.148,0,0,0,3.111,0,2.148,2.148,0,0,0,0-3.111l-8.889-8.889a2.2,2.2,0,0,0-3.111,3.111Z" transform="translate(-230.967 -23.111)"/>
      <path id="Path_184" data-name="Path 184" class="cls-2" d="M226.022,192a2.1,2.1,0,0,0-2.222,2.222v8.889a2.222,2.222,0,0,0,4.444,0v-8.889A2.1,2.1,0,0,0,226.022,192Z" transform="translate(-161.633 -138.667)"/>
    </g>
  </g>
</svg>
