<?xml version="1.0" encoding="iso-8859-1"?>
<!-- Generator: Adobe Illustrator 14.0.0, SVG Export Plug-In . SVG Version: 6.00 Build 43363)  -->
<!DOCTYPE svg PUBLIC "-//W3C//DTD SVG 1.1//EN" "http://www.w3.org/Graphics/SVG/1.1/DTD/svg11.dtd">
<svg version="1.1" xmlns="http://www.w3.org/2000/svg" xmlns:xlink="http://www.w3.org/1999/xlink" x="0px" y="0px"
	 width="841.89px" height="595.28px" viewBox="0 0 841.89 595.28" style="enable-background:new 0 0 841.89 595.28;"
	 xml:space="preserve">
<g id="Vidro">
	<g>
		<g>
			<path style="fill:none;stroke:#000000;stroke-width:9;" d="M559.545,526.021L426.672,310.48V171.492
				c45.924,0.676,40.785-11.287,40.785-22.069c0-13.676,3.031-18.218-89.147-18.292c-95.759-0.074-91.357,5.351-91.357,19.027
				c0,10.273,0,21.277,39.625,20.816V310.48L215.046,526.212c-31.183,55.95,12.472,63.097,12.472,63.097h315.517
				C587.979,570.047,559.545,526.021,559.545,526.021z"/>
			<path style="fill:#29ABE2;" d="M443.977,31.656c0,14.181-12.951,25.678-28.93,25.678c-15.978,0-28.93-11.497-28.93-25.678
				c0-14.185,12.952-25.685,28.93-25.685C431.025,5.971,443.977,17.471,443.977,31.656z"/>
			<ellipse style="fill:#29ABE2;" cx="349.047" cy="82.101" rx="17.885" ry="16.51"/>
			<ellipse style="fill:#29ABE2;" cx="417.379" cy="93.749" rx="15.594" ry="16.049"/>
		</g>
		<g id="XMLID_1_">
			<g>
				<path style="fill:#29ABE2;" d="M522.012,534.623c0,0,15.187,27.002-12.655,27.002s-238.77,0-238.77,0
					s-32.904,5.062-16.867-32.063C269.746,492.436,327.96,383.6,327.96,383.6s23.914-26.991,58.782,11.815
					c34.868,38.806,52.585-1.691,52.585-1.691L522.012,534.623z"/>
			</g>
			<g>
				<path style="fill:none;stroke:#29ABE2;stroke-width:12;" d="M439.327,393.724l82.685,140.899c0,0,15.187,27.002-12.655,27.002
					s-238.77,0-238.77,0s-32.904,5.062-16.867-32.063C269.746,492.436,327.96,383.6,327.96,383.6s23.914-26.991,58.782,11.815
					C421.61,434.221,439.327,393.724,439.327,393.724z"/>
			</g>
		</g>
	</g>
</g>
<g id="Chapeleira" style="display:none;">
	<g style="display:inline;">
		<g id="XMLID_2_">
			<g>
				<polygon style="fill:#343434;" points="792.196,164.236 792.196,196.338 415.947,46.484 46.209,190.224 46.209,158.122 
					415.947,14.382 				"/>
				<polygon points="792.196,196.338 419.203,459.269 46.209,190.224 				"/>
				<polygon points="792.196,196.338 46.209,190.224 415.947,46.484 				"/>
			</g>
			<g>
			</g>
		</g>
		<g id="XMLID_3_">
			<g>
				<path style="fill:#444444;" d="M677.547,221.301v169.177H160.859V221.301c0,0,34.135-57.065,258.344-57.065
					S677.547,221.301,677.547,221.301z"/>
			</g>
			<g>
			</g>
		</g>
		<path d="M677.546,390.478c0,37.989-68.534,68.789-258.344,68.789c-198.725,0-258.343-30.8-258.343-68.789
			s115.665-68.793,258.343-68.793C561.881,321.685,677.546,352.488,677.546,390.478z"/>
		<polygon style="fill:#29ABE2;" points="591.941,507.675 591.941,84.476 573.088,76.965 573.088,507.675 556.78,507.675 
			556.78,587.164 611.812,587.164 611.812,507.675 		"/>
	</g>
</g>
<g id="on" style="display:none;">
	<g style="display:inline;">
		
			<rect x="365.844" y="287.486" transform="matrix(0.8933 0.4494 -0.4494 0.8933 207.3003 -128.9448)" style="fill:#29ABE2;" width="18.813" height="169.37"/>
		
			<rect x="263.997" y="567.813" transform="matrix(0.8933 0.4495 -0.4495 0.8933 287.9136 -61.4679)" style="fill:#29ABE2;" width="18.809" height="15.538"/>
		<path style="fill:#29ABE2;" d="M421.865,142.639c-75.668,0-137.01,61.341-137.01,137.012c0,32.687,14.948,67.644,34.052,91.194
			l13.027-9.708c-17.027-20.827-29.957-51.547-29.957-80.548c0-66.75,54.113-120.864,120.864-120.864
			c66.749,0,120.862,54.114,120.862,120.864c0,66.75-54.113,120.864-120.862,120.864c-3.597,0-5.151-0.01-8.667-0.318l-0.993,15.526
			c3.56,0.279,5.052,0,8.684,0c75.672,0,137.013-61.341,137.013-137.01C558.878,203.98,497.537,142.639,421.865,142.639z"/>
		<g id="XMLID_5_">
			<g>
				<polygon style="fill:#59585D;" points="368.073,477.221 372.672,495.698 280.767,459.388 298.59,449.853 				"/>
				<polygon style="fill:#59585D;" points="352.907,502.188 357.496,520.675 265.601,484.354 283.424,474.819 				"/>
				<polygon style="fill:#59585D;" points="338.804,530.68 343.393,549.167 251.498,512.856 269.321,503.321 				"/>
				<polygon style="fill:#59585D;" points="322.054,555.86 326.643,574.338 234.749,538.027 252.571,528.492 				"/>
			</g>
			<g>
			</g>
		</g>
		<g id="XMLID_4_">
			<g>
				<path style="fill:#59585D;" d="M685.054,277.009c0.327,3.465-5.018,6.275-8.952,6.643l-47.082,12.243
					c-1.717,15.156-5.059,29.821-9.872,43.801l38.344,30.658c3.495,1.911,5.039,8.359,3.362,11.415l-13.592,24.905
					c-1.676,3.056-7.726,2.371-11.231,0.46l-44.649-13.848c-9.167,12.714-19.744,24.354-31.496,34.676l21.481,46.959
					c2.248,3.249,0.694,9.657-2.167,11.64l-23.331,16.157c-2.861,1.982-7.931-1.298-10.179-4.548l-36.146-37.557
					c-12.049,5.528-24.731,9.934-37.895,13.07c0.235,0.705,0.378,1.451,0.398,2.238l-7.572,53.326
					c0.133,3.955-4.63,8.513-8.114,8.636l-28.359,1.012c-3.475,0.122-5.969-5.376-6.112-9.331l-11.752-50.648
					c-0.01-0.286,0.01-0.582,0.041-0.879l2.657-50.975c3.137,0.194,6.295,0.307,9.474,0.307c82.687,0,149.717-67.03,149.717-149.717
					c0-82.687-67.03-149.717-149.717-149.717c-82.687,0-149.717,67.03-149.717,149.717c0,38.487,14.532,73.581,38.395,100.101
					l-39.141,33.888c-0.296,0.286-0.583,0.542-0.858,0.746l-42.595,19.969c-3.209,2.371-9.105,3.884-11.18,1.094l-16.893-22.8
					c-2.074-2.8-1.441-9.402,1.768-11.772l34.798-36.72c-6.204-12.876-11.119-26.499-14.573-40.684l-50.566-5.928
					c-3.945,0.174-9.627-1.87-9.78-5.354l-1.257-28.339c-0.153-3.485,4.016-8.595,7.971-8.769l48.022-10.781
					c0.95-19.642,4.629-38.559,10.669-56.392l-40.02-22.125c-3.72-1.329-8.196-5.375-7.021-8.656l9.576-26.714
					c1.175-3.281,6.97-6.428,10.689-5.1l53.111,8.993c0.307,0.112,0.593,0.245,0.879,0.378
					c8.615-12.131,18.518-23.291,29.494-33.295L264.6,73.159c-2.095-3.342-3.117-9.3-0.164-11.15l24.047-15.053
					c2.954-1.85,9.453-0.746,11.558,2.606l33.122,36.565c14.042-6.816,28.982-12.09,44.578-15.595
					c-0.031-0.296-0.051-0.593-0.041-0.889l8.779-51.783c0.031-3.945,2.371-9.515,5.856-9.484l28.369,0.205
					c3.485,0.031,8.38,4.456,8.35,8.4l8.359,48.962c17.148,1.145,33.714,4.384,49.463,9.453l25.631-37.598
					c1.614-3.607,7.899-5.601,11.077-4.17l25.896,11.62c3.168,1.42,2.984,7.46,1.37,11.057l-11.865,44.415
					c13.418,9.055,25.713,19.642,36.647,31.507l48.247-15.217c3.505-1.829,9.678,0.5,11.292,3.587l13.152,25.14
					c1.615,3.086-2.269,7.716-5.773,9.545l-33.694,25.232c8.769,17.66,15.095,36.75,18.518,56.831l45.938,3.822
					c3.935-0.368,8.769,4.119,9.096,7.593L685.054,277.009z"/>
			</g>
			<g>
			</g>
		</g>
	</g>
</g>
<g id="Camada_5" style="display:none;">
	<g style="display:inline;">
		<path style="fill:#EE9805;" d="M688.418,299.592c0,160.096-129.78,289.872-289.872,289.872S108.675,459.688,108.675,299.592
			c0-160.089,129.78-289.869,289.872-289.869S688.418,139.503,688.418,299.592z"/>
		<g id="XMLID_18_">
			<g>
				<path style="fill:#C17208;" d="M398.546,9.719c160.087,0,289.849,129.762,289.849,289.848
					c0,160.087-129.762,289.895-289.849,289.895V9.719z"/>
			</g>
			<g>
			</g>
		</g>
		<g>
			<g id="XMLID_12_">
				<g>
					<path style="fill:#F6D5BC;" d="M507.839,234.397c10.749,0,19.439,12.807,19.439,28.587c0,15.78-8.69,28.587-19.439,28.587
						c-4.711,0-8.37-0.457-11.16-1.28c-5.58,47.751-27.672,77.939-61.428,89.877v95.091h-77.756v-96.875
						c-31.926-10.383-46.974-32.521-55.162-88.459c-3.019,1.784-7.593,2.79-14.591,2.79c-10.749,0-19.439-12.761-19.439-28.587
						c0-15.78,8.69-28.587,19.439-28.587c3.476,0,6.77,1.418,9.605,3.796c-6.449-132.094,56.762-103.69,108.173-103.69
						c51.182,0,86.63,7.821,91.89,103.233C500.429,236.089,503.997,234.397,507.839,234.397z"/>
				</g>
				<g>
				</g>
			</g>
			<g id="XMLID_15_">
				<g>
					<polygon style="fill:#EBC0A8;" points="435.251,380.076 435.251,413.328 397.633,446.672 397.984,374.633 435.251,374.633 
											"/>
				</g>
				<g>
				</g>
			</g>
			<g id="XMLID_8_">
				<g>
					<path style="fill:#BECFD8;" d="M535.511,450.103c24.013,16.009,29.867,86.035,29.867,86.035s-60.787,53.332-169.372,53.332
						c-112.838,0-171.156-57.266-171.156-57.266c11.435-54.887,28.221-80.958,28.221-80.958
						c17.152-16.009,89.191-21.726,89.191-21.726h110.917C453.181,429.521,511.498,434.094,535.511,450.103z"/>
				</g>
				<g>
				</g>
			</g>
			<g id="XMLID_9_">
				<g>
					<path style="fill:#FFFBED;" d="M439.825,412.368c0,0,20.582,11.435,10.291,17.152c-10.291,5.717-20.583,45.738-20.583,45.738
						l-33.161-45.738C403.233,419.229,439.825,412.368,439.825,412.368z"/>
					<path style="fill:#FFFBED;" d="M396.373,429.521l-33.161,45.738c0,0-10.292-40.021-20.583-45.738
						c-10.292-5.718,10.291-17.152,10.291-17.152S389.512,419.229,396.373,429.521z"/>
				</g>
				<g>
				</g>
			</g>
			<g id="XMLID_6_">
				<g>
					<rect x="304.895" y="540.438" style="fill:#83959F;" width="52.6" height="14.865"/>
				</g>
				<g>
				</g>
			</g>
			<g id="XMLID_7_">
				<g>
					<rect x="435.251" y="540.438" style="fill:#83959F;" width="52.6" height="14.865"/>
				</g>
				<g>
				</g>
			</g>
			<g id="XMLID_10_">
				<g>
					<polygon style="fill:#1D9F99;" points="396.372,429.497 412.975,452.367 403.827,454.653 412.243,552.444 396.234,584.461 
						383.336,552.444 389.374,452.961 379.036,453.419 					"/>
				</g>
				<g>
				</g>
			</g>
			<g id="XMLID_11_">
				<g>
					<path style="fill:#EBC0A8;" d="M525.494,251c5.58,27.26-4.574,33.115-4.574,33.115c-4.939,10.565-24.241,6.175-24.241,6.175
						c-3.156,37.46-22.321,61.381-22.321,61.381c-27.809,37.598-76.567,34.396-76.567,34.396V144.794l72.633,8.324
						c28.861,30.646,26.986,85.761,26.986,85.761C516.712,224.38,525.494,251,525.494,251z"/>
				</g>
				<g>
				</g>
			</g>
			<g id="XMLID_13_">
				<g>
					<path style="fill:#8B5F3B;" d="M500.429,143.651l7.41,90.746l-10.429,4.482l-9.56-2.607v30.874h-6.86V238.56l-10.292-11.435
						v-14.865l6.861-8.004l-1.144-21.726c0,0-14.865-27.443-78.9-29.73c-64.035-2.287-80.043,40.021-80.043,40.021l5.717,16.009
						l-1.143,19.439l-6.861,5.717l-2.287,33.161h-8.004v-32.018l-7.547,4.208l-9.605-3.796v-78.168
						c0,0,41.989-77.756,110.186-73.183C466.125,88.764,500.429,143.651,500.429,143.651z"/>
				</g>
				<g>
				</g>
			</g>
			<g id="XMLID_14_">
				<g>
					<path style="fill:#FFFBED;" d="M362.663,322.582h70.301c0,0,0,18.296-35.173,18.296
						C362.663,340.878,362.663,322.582,362.663,322.582z"/>
				</g>
				<g>
				</g>
			</g>
		</g>
	</g>
	<g style="display:inline;">
		<path style="fill:#E0364B;" d="M657.738,299.591c0,159.545-129.332,288.874-288.872,288.874
			c-159.541,0-288.874-129.329-288.874-288.874c0-159.538,129.333-288.871,288.874-288.871
			C528.406,10.72,657.738,140.053,657.738,299.591z"/>
		<g id="XMLID_17_">
			<g>
				<path style="fill:#BC3149;" d="M368.864,10.718c159.536,0,288.851,129.315,288.851,288.851
					c0,159.536-129.315,288.896-288.851,288.896V10.718z"/>
			</g>
			<g>
			</g>
		</g>
		<g id="XMLID_35_">
			<g>
				<path style="fill:#A58C7C;" d="M478.69,234.619c10.711,0,19.372,12.763,19.372,28.489c0,15.726-8.661,28.488-19.372,28.488
					c-4.695,0-8.342-0.456-11.122-1.276c-5.562,47.588-27.577,77.672-61.216,89.568v94.765h-77.489V378.11
					c-31.816-10.348-46.813-32.409-54.972-88.155c-3.008,1.777-7.566,2.78-14.541,2.78c-10.712,0-19.373-12.717-19.373-28.489
					c0-15.726,8.661-28.488,19.373-28.488c3.464,0,6.746,1.413,9.572,3.783c-6.427-131.64,56.567-103.333,107.8-103.333
					c51.006,0,86.332,7.794,91.574,102.878C471.306,236.305,474.861,234.619,478.69,234.619z"/>
			</g>
			<g>
			</g>
		</g>
		<g id="XMLID_34_">
			<g>
				<polygon style="fill:#93786D;" points="406.352,379.797 406.352,412.935 368.863,446.163 369.213,374.372 406.352,374.372 				
					"/>
			</g>
			<g>
			</g>
		</g>
		<g id="XMLID_33_">
			<g>
				<path style="fill:#13A2E2;" d="M506.267,449.582c23.931,15.953,29.765,85.739,29.765,85.739s-60.578,53.148-168.789,53.148
					c-112.45,0-170.567-57.068-170.567-57.068c11.396-54.698,28.124-80.68,28.124-80.68c17.093-15.954,88.884-21.651,88.884-21.651
					H424.22C424.22,429.07,482.336,433.628,506.267,449.582z"/>
			</g>
			<g>
			</g>
		</g>
		<g id="XMLID_32_">
			<g>
				<path style="fill:#FFFBED;" d="M410.91,411.978c0,0,20.512,11.395,10.256,17.093c-10.256,5.697-20.512,45.582-20.512,45.582
					l-33.047-45.582C374.445,418.814,410.91,411.978,410.91,411.978z"/>
				<path style="fill:#FFFBED;" d="M367.607,429.07l-33.047,45.582c0,0-10.256-39.885-20.512-45.582
					c-10.256-5.698,10.256-17.093,10.256-17.093S360.77,418.814,367.607,429.07z"/>
			</g>
			<g>
			</g>
		</g>
		<g id="XMLID_31_">
			<g>
				<rect x="276.444" y="535.048" style="fill:#FFFBED;" width="52.419" height="14.813"/>
			</g>
			<g>
			</g>
		</g>
		<g id="XMLID_30_">
			<g>
				<rect x="406.352" y="535.048" style="fill:#FFFBED;" width="52.418" height="14.813"/>
			</g>
			<g>
			</g>
		</g>
		<g id="XMLID_29_">
			<g>
				<polygon style="fill:#053B6D;" points="367.606,429.048 384.152,451.838 375.036,454.117 383.423,551.571 367.47,583.479 
					354.615,551.571 360.632,452.431 350.331,452.887 				"/>
			</g>
			<g>
			</g>
		</g>
		<g id="XMLID_28_">
			<g>
				<path style="fill:#93786D;" d="M496.284,251.165c5.562,27.167-4.558,33.001-4.558,33.001
					c-4.923,10.529-24.158,6.153-24.158,6.153c-3.146,37.332-22.244,61.171-22.244,61.171
					c-27.713,37.468-76.304,34.277-76.304,34.277V145.324l72.384,8.296c28.762,30.54,26.894,85.466,26.894,85.466
					C487.533,224.636,496.284,251.165,496.284,251.165z"/>
			</g>
			<g>
			</g>
		</g>
		<g id="XMLID_27_">
			<g>
				<path style="fill:#0C0601;" d="M471.306,144.185l7.385,90.434l-10.393,4.467l-9.527-2.599v30.768h-6.837v-28.489l-10.256-11.396
					v-14.814l6.837-7.977l-1.14-21.651c0,0-14.813-27.349-78.628-29.628c-63.814-2.279-79.768,39.884-79.768,39.884l5.698,15.954
					l-1.14,19.372l-6.837,5.698l-2.279,33.047h-7.977v-31.907l-7.521,4.193l-9.572-3.783v-77.899c0,0,41.844-77.489,109.806-72.931
					C437.119,89.487,471.306,144.185,471.306,144.185z"/>
			</g>
			<g>
			</g>
		</g>
		<g id="XMLID_26_">
			<g>
				<path style="fill:#FFFBED;" d="M334.014,322.5h70.059c0,0,0,18.232-35.052,18.232C334.014,340.732,334.014,322.5,334.014,322.5z
					"/>
			</g>
			<g>
			</g>
		</g>
		<path style="fill:#0C0601;" d="M429.354,99.884c0,0-26.45-12.166-16.574-34.42L394.7,87.029c0,0-6.344-27.576,5.902-51.177
			L369.43,78.297c0,0-7.961-28.257,16.579-54.558c0,0-133.83,111.694-126.656,138.11C266.524,188.265,429.354,99.884,429.354,99.884
			z"/>
	</g>
	<g style="display:inline;">
		<path style="fill:#13AA0B;" d="M739.989,297.626c0,159.82-129.552,289.371-289.373,289.371
			c-159.811,0-289.371-129.551-289.371-289.371c0-159.813,129.561-289.37,289.371-289.37
			C610.438,8.256,739.989,137.813,739.989,297.626z"/>
		<g id="XMLID_55_">
			<g>
				<path style="fill:#149309;" d="M450.621,8.257c159.812,0,289.35,129.538,289.35,289.349s-129.538,289.395-289.35,289.395V8.257z
					"/>
			</g>
			<g>
			</g>
		</g>
		<g>
			<g id="XMLID_59_">
				<g>
					<path style="fill:#F6D5BC;" d="M559.726,232.548c10.73,0,19.405,12.785,19.405,28.538c0,15.752-8.675,28.538-19.405,28.538
						c-4.703,0-8.355-0.457-11.142-1.279c-5.57,47.669-27.624,77.805-61.321,89.723v94.928H409.64v-96.709
						c-31.871-10.365-46.893-32.465-55.066-88.307c-3.014,1.781-7.58,2.786-14.565,2.786c-10.73,0-19.406-12.739-19.406-28.538
						c0-15.752,8.675-28.538,19.406-28.538c3.47,0,6.758,1.416,9.588,3.79c-6.438-131.867,56.665-103.512,107.986-103.512
						c51.095,0,86.481,7.808,91.731,103.055C552.328,234.237,555.89,232.548,559.726,232.548z"/>
				</g>
				<g>
				</g>
			</g>
			<g id="XMLID_58_">
				<g>
					<polygon style="fill:#EBC0A8;" points="487.26,377.976 487.26,411.171 449.707,444.457 450.057,372.542 487.26,372.542 					
						"/>
				</g>
				<g>
				</g>
			</g>
			<g id="XMLID_57_">
				<g>
					<path style="fill:#0A3F56;" d="M587.35,447.882c23.972,15.98,29.816,85.887,29.816,85.887s-60.683,53.24-169.08,53.24
						c-112.644,0-170.861-57.167-170.861-57.167c11.415-54.792,28.172-80.818,28.172-80.818
						c17.123-15.981,89.038-21.689,89.038-21.689h110.726C505.161,427.334,563.378,431.9,587.35,447.882z"/>
				</g>
				<g>
				</g>
			</g>
			<g id="XMLID_56_">
				<g>
					<path style="fill:#FFFBED;" d="M491.829,410.212c0,0,20.547,11.415,10.273,17.122c-10.273,5.708-20.548,45.661-20.548,45.661
						l-33.104-45.661C455.301,417.061,491.829,410.212,491.829,410.212z"/>
					<path style="fill:#FFFBED;" d="M448.451,427.334l-33.104,45.661c0,0-10.273-39.953-20.547-45.661
						c-10.273-5.707,10.274-17.122,10.274-17.122S441.603,417.061,448.451,427.334z"/>
				</g>
				<g>
				</g>
			</g>
			<g id="XMLID_50_">
				<g>
					<path style="fill:#EBC0A8;" d="M577.351,249.122c5.57,27.214-4.566,33.058-4.566,33.058c-4.932,10.548-24.2,6.164-24.2,6.164
						c-3.15,37.396-22.282,61.276-22.282,61.276c-27.761,37.533-76.435,34.337-76.435,34.337V143.099l72.508,8.31
						c28.812,30.592,26.939,85.613,26.939,85.613C568.584,222.548,577.351,249.122,577.351,249.122z"/>
				</g>
				<g>
				</g>
			</g>
			<g id="XMLID_49_">
				<g>
					<path style="fill:#070301;" d="M493.838,143.693c2.466,4.475,15.615,32.236-43.195,30.136
						c-63.924-2.283-80.955,17.214-80.955,17.214l5.708,15.981l-1.142,19.406l-6.849,5.708l-2.283,33.104h-7.99v-31.962
						l-7.534,4.201l-9.588-3.79v-78.033c0,0,41.916-77.623,109.996-73.057c68.079,4.566,102.324,59.358,102.324,59.358l7.397,90.59
						l-10.411,4.475l-9.543-2.603v30.82h-6.849v-28.538l-10.273-11.415v-14.839l6.849-7.991L493.838,143.693z"/>
				</g>
				<g>
				</g>
			</g>
			<g id="XMLID_48_">
				<g>
					<path style="fill:#FFFBED;" d="M414.8,320.581h70.18c0,0,0,18.264-35.112,18.264C414.8,338.845,414.8,320.581,414.8,320.581z"
						/>
				</g>
				<g>
				</g>
			</g>
		</g>
	</g>
	<g style="display:inline;">
		<g id="XMLID_45_">
			<g>
				<path style="fill:#D3D30D;" d="M418.008,9.251c159.25,0,288.334,129.129,288.334,288.38s-129.084,288.38-288.334,288.38
					s-288.38-129.13-288.38-288.38S258.758,9.251,418.008,9.251z"/>
			</g>
			<g>
			</g>
		</g>
		<g id="XMLID_60_">
			<g>
				<path style="fill:#9EA508;" d="M417.995,9.277c159.25,0,288.334,129.084,288.334,288.334
					c0,159.25-129.084,288.38-288.334,288.38V9.277z"/>
			</g>
			<g>
			</g>
		</g>
		<g>
			<g id="XMLID_54_">
				<g>
					<path style="fill:#F6D5BC;" d="M526.716,232.781c10.693,0,19.338,12.74,19.338,28.438s-8.645,28.438-19.338,28.438
						c-4.687,0-8.326-0.455-11.102-1.274c-5.551,47.502-27.527,77.533-61.106,89.408v94.595h-77.351v-96.369
						c-31.759-10.328-46.729-32.351-54.873-87.998c-3.003,1.775-7.553,2.776-14.515,2.776c-10.693,0-19.338-12.695-19.338-28.438
						c0-15.698,8.645-28.438,19.338-28.438c3.458,0,6.734,1.411,9.555,3.777c-6.416-131.405,56.466-103.149,107.608-103.149
						c50.914,0,86.177,7.78,91.409,102.694C519.345,234.465,522.895,232.781,526.716,232.781z"/>
				</g>
				<g>
				</g>
			</g>
			<g id="XMLID_53_">
				<g>
					<polygon style="fill:#EBC0A8;" points="454.49,377.699 454.49,472.385 417.069,472.385 417.417,372.284 454.49,372.284 					
						"/>
				</g>
				<g>
				</g>
			</g>
			<g id="XMLID_52_">
				<g>
					<path style="fill:#B70D2A;" d="M554.243,447.36c23.888,15.925,29.712,85.585,29.712,85.585s-60.47,53.054-168.487,53.054
						c-112.249,0-170.261-56.966-170.261-56.966c11.375-54.601,28.073-80.536,28.073-80.536
						c17.063-15.925,88.726-21.612,88.726-21.612h15.288c0.045,0.637,0.136,1.274,0.228,1.911
						c2.366,16.107,16.971,27.755,31.531,32.578c7.007,2.366,16.153,2.411,23.115-0.137c11.693-4.277,17.335-11.875,22.021-23.114
						c0-3.776,0.273-6.097,0.318-11.238h17.836C472.343,426.885,530.355,431.435,554.243,447.36z"/>
				</g>
				<g>
				</g>
			</g>
			<g id="XMLID_51_">
				<g>
					<path style="fill:#EBC0A8;" d="M544.279,249.298c5.551,27.118-4.55,32.942-4.55,32.942
						c-4.914,10.511-24.115,6.143-24.115,6.143c-3.14,37.264-22.204,61.061-22.204,61.061
						c-27.664,37.401-76.167,34.217-76.167,34.217V143.646l72.254,8.281c28.711,30.485,26.845,85.313,26.845,85.313
						C535.543,222.816,544.279,249.298,544.279,249.298z"/>
				</g>
				<g>
				</g>
			</g>
			<g id="XMLID_47_">
				<g>
					<path style="fill:#070301;" d="M519.345,142.509l7.371,90.272l-10.374,4.459l-9.509-2.594v30.713h-6.825v-28.438
						l-10.237-11.375v-14.788l6.824-7.962l-26.936-44.408c0,0-31.122,31.577-51.643,15.88
						c-50.642-38.675-80.671,17.153-80.671,17.153l5.688,15.925l-1.138,19.337l-6.825,5.688l-2.275,32.988h-7.962v-31.85
						l-7.508,4.186l-9.555-3.777v-77.76c0,0,41.769-77.35,109.61-72.8C485.22,87.909,519.345,142.509,519.345,142.509z"/>
				</g>
				<g>
				</g>
			</g>
			<g id="XMLID_46_">
				<g>
					<path style="fill:#FFFBED;" d="M382.299,320.506h69.934c0,0,0,18.199-34.99,18.199
						C382.299,338.705,382.299,320.506,382.299,320.506z"/>
				</g>
				<g>
				</g>
			</g>
			<path style="fill:#070301;" d="M449.148,170.234c0,0-10.236,23.128-11.374,34.502c-1.138,11.375,0,1.516,0,1.516
				s-4.169-36.018,3.413-47.393c7.58-11.375,1.7-1.578,1.7-1.578s-18.764,38.733-19.901,50.868c0,0-6.829-18.195-1.52-24.265
				c0,0-15.92,14.406-15.543,32.228c0,0-4.555-22.746,3.03-40.19c0,0-19.337,11.371-24.265,29.193c0,0-0.756-18.955,4.172-25.78
				c0,0-43.226,12.89-34.503,27.3c0,0-15.894-8.345-9.887-23.848c20.88-53.88,102.403-40.235,102.403-40.235L449.148,170.234z"/>
		</g>
	</g>
</g>
<g id="Camada_7" style="display:none;">
	<g style="display:inline;">
		<g id="XMLID_25_">
			<g>
				<path style="fill:#D113D6;" d="M411.426,7.113c160.36,0,290.345,130.03,290.345,290.391
					c0,160.36-129.984,290.345-290.345,290.345c-160.407,0-290.391-129.984-290.391-290.345
					C121.035,137.143,251.019,7.113,411.426,7.113z"/>
			</g>
			<g>
			</g>
		</g>
		<g id="XMLID_24_">
			<g>
				<path style="fill:#A30AA3;" d="M411.405,7.131c160.361,0,290.344,129.984,290.344,290.345s-129.983,290.39-290.344,290.39V7.131
					z"/>
			</g>
			<g>
			</g>
		</g>
		<path style="fill:#860B14;" d="M491.447,306.649c0,0,10.31,4.197,43.526,85.523c0,0,16.036,62.802,0,109.29
			c0,0-161.506,117.308-239.396,0c0,0-36.958-55.455-9.316-112.728c27.643-57.271,47.115-95.071,47.115-95.071L491.447,306.649z"/>
		<g id="XMLID_20_">
			<g>
				<rect x="366.595" y="344.065" style="fill:#F3D6BB;" width="85.542" height="142.034"/>
			</g>
			<g>
			</g>
		</g>
		<g id="XMLID_22_">
			<g>
				<rect x="411.404" y="354.755" style="fill:#E6C2A8;" width="42.77" height="142.033"/>
			</g>
			<g>
			</g>
		</g>
		<g id="XMLID_16_">
			<g>
				<path style="fill:#FF8A1F;" d="M539.189,466.993l12.188,85.541c0,0-59.563,38.166-142.034,35.143V471.575
					c0,0,41.235-10.676,42.794-56.493C452.137,415.082,520.862,436.479,539.189,466.993z"/>
				<path style="fill:#F9A41D;" d="M409.343,471.575v116.102c-82.471,3.023-142.034-38.029-142.034-38.029l12.233-82.654
					c18.327-30.514,87.053-51.911,87.053-51.911C368.107,460.899,409.343,471.575,409.343,471.575z"/>
			</g>
			<g>
			</g>
		</g>
		<g id="XMLID_19_">
			<g>
				<path style="fill:#F3D6BB;" d="M523.611,240.106c10.858,2.153,16.494,19.747,12.554,39.311
					c-3.803,19.06-15.257,32.852-25.887,31.522c-17.686,48.841-54.156,82.426-96.354,82.426c-42.977,0-80.043-34.821-97.316-85.129
					c-1.054,0.55-2.107,1.008-3.299,1.237c-10.813,2.153-22.817-11.913-26.711-31.477c-3.895-19.518,1.741-37.112,12.6-39.311
					c2.337-0.458,4.765-0.138,7.148,0.825c1.878-79.951,49.299-143.958,107.579-143.958c58.371,0,105.838,64.236,107.579,144.324
					C522.191,239.876,522.924,239.968,523.611,240.106z"/>
			</g>
			<g>
			</g>
		</g>
		<g id="XMLID_21_">
			<g>
				<path style="fill:#E6C2A8;" d="M523.611,240.106c10.858,2.153,16.494,19.747,12.554,39.311
					c-3.803,19.06-15.257,32.852-25.887,31.522c-17.686,48.841-54.156,82.426-96.354,82.426c-0.871,0-1.695-0.092-2.52-0.138V95.644
					c0.825-0.046,1.649-0.091,2.52-0.091c58.371,0,105.838,64.236,107.579,144.324C522.191,239.876,522.924,239.968,523.611,240.106
					z"/>
			</g>
			<g>
			</g>
		</g>
		<ellipse style="fill:#E2F20A;" cx="307.728" cy="300.157" rx="5.728" ry="6.492"/>
		<ellipse style="fill:#E2F20A;" cx="515.19" cy="300.157" rx="5.728" ry="6.492"/>
		<path style="fill:#FFFFFF;" d="M439.903,341.773h-56.126c0,0,5.314,18.326,25.566,18.326
			C409.343,360.1,435.321,361.246,439.903,341.773z"/>
		<g id="XMLID_23_">
			<g>
				<path style="fill:#860B14;" d="M534.975,185.996c0,33.217-4.216,58.463-4.216,58.463s-11.316-11.5-15.578,4.536
					c0,0-82.15-33.217-85.587-97.362c0,0-0.412,27.491-91.268,46.963c0,0-29.919,5.727-24.879,45.817c0,0-17.869-6.873-21.305,0
					c0,0-38.945-138.598,83.617-169.524S534.975,152.778,534.975,185.996z"/>
			</g>
			<g>
			</g>
		</g>
	</g>
	<g style="display:inline;">
		<g id="XMLID_43_">
			<g>
				<path style="fill:#19C9F7;" d="M413.972,11.254c158.152,0,286.346,128.238,286.346,286.391
					c0,158.152-128.193,286.345-286.346,286.345c-158.197,0-286.391-128.193-286.391-286.345
					C127.581,139.493,255.775,11.254,413.972,11.254z"/>
			</g>
			<g>
			</g>
		</g>
		<g id="XMLID_42_">
			<g>
				<path style="fill:#12A8DD;" d="M415.983,11.272c158.152,0,286.346,128.193,286.346,286.346
					c0,158.152-128.193,286.39-286.346,286.39V11.272z"/>
			</g>
			<g>
			</g>
		</g>
		<g id="XMLID_41_">
			<g>
				<rect x="371.791" y="343.565" style="fill:#F3D6BB;" width="84.363" height="140.077"/>
			</g>
			<g>
			</g>
		</g>
		<g id="XMLID_40_">
			<g>
				<rect x="415.982" y="354.107" style="fill:#E6C2A8;" width="42.182" height="140.077"/>
			</g>
			<g>
			</g>
		</g>
		<g id="XMLID_39_">
			<g>
				<path style="fill:#EF2BD3;" d="M542.008,464.8l12.02,84.363c0,0-58.742,37.64-140.077,34.658V469.318
					c0,0,42.475-10.528,43.966-55.714C457.916,413.604,523.934,434.706,542.008,464.8z"/>
				<path style="fill:#F45DD7;" d="M413.95,469.318v114.503c-81.335,2.981-140.078-37.505-140.078-37.505l12.064-81.517
					c18.075-30.094,85.854-51.195,85.854-51.195C373.282,458.79,413.95,469.318,413.95,469.318z"/>
			</g>
			<g>
			</g>
		</g>
		<g id="XMLID_38_">
			<g>
				<path style="fill:#F3D6BB;" d="M526.645,241.038c10.709,2.124,16.268,19.475,12.381,38.77
					c-3.75,18.797-15.047,32.398-25.53,31.088c-17.441,48.169-53.41,81.29-95.026,81.29c-42.385,0-78.94-34.342-95.976-83.956
					c-1.04,0.542-2.079,0.994-3.253,1.22c-10.664,2.124-22.503-11.748-26.344-31.042c-3.841-19.25,1.717-36.601,12.426-38.77
					c2.304-0.452,4.699-0.135,7.049,0.813c1.853-78.85,48.621-141.975,106.098-141.975c57.567,0,104.38,63.351,106.098,142.336
					C525.244,240.812,525.967,240.902,526.645,241.038z"/>
			</g>
			<g>
			</g>
		</g>
		<g id="XMLID_37_">
			<g>
				<path style="fill:#E6C2A8;" d="M526.645,241.038c10.709,2.124,16.268,19.475,12.381,38.77
					c-3.75,18.797-15.047,32.398-25.53,31.088c-17.441,48.169-53.41,81.29-95.026,81.29c-0.859,0-1.672-0.09-2.485-0.136V98.565
					c0.813-0.045,1.626-0.09,2.485-0.09c57.567,0,104.38,63.351,106.098,142.336C525.244,240.812,525.967,240.902,526.645,241.038z"
					/>
			</g>
			<g>
			</g>
		</g>
		<ellipse style="fill:#E2F20A;" cx="313.736" cy="300.261" rx="5.648" ry="6.402"/>
		<path style="fill:#E2F20A;" d="M523.986,300.261c0,3.534-2.524,6.402-5.648,6.402c-3.115,0-5.648-2.868-5.648-6.402
			c0-3.535,2.533-6.403,5.648-6.403C521.462,293.858,523.986,296.726,523.986,300.261z"/>
		<path style="fill:#FFFFFF;" d="M444.09,341.304h-55.354c0,0,5.242,18.074,25.214,18.074
			C413.951,359.378,439.57,360.508,444.09,341.304z"/>
		<g id="XMLID_36_">
			<g>
				<path style="fill:#EAA711;" d="M537.851,187.673c0,32.76-4.157,57.657-4.157,57.657s-11.161-11.341-15.363,4.474
					c0,0-81.019-32.76-84.408-96.021c0,0-0.406,27.112-90.011,46.316c0,0-29.506,5.648-24.536,45.187c0,0-17.623-6.778-21.012,0
					c0,0-38.408-136.688,82.465-167.189C501.702,47.595,537.851,154.913,537.851,187.673z"/>
			</g>
			<g>
			</g>
		</g>
		<path style="fill:#FFFFFF;" d="M371.959,413.602c0,0-30.125,2.268-41.422,20.343c0,0,65.807,17.315,78.467,53.469l4.947-18.097
			L371.959,413.602z"/>
		<path style="fill:#FFFFFF;" d="M457.939,413.602c0,0,30.125,2.268,41.422,20.343c0,0-65.807,17.315-78.467,53.469l-6.943-18.097
			L457.939,413.602z"/>
		<g id="XMLID_44_">
			<g>
				<path style="fill:#EAA711;" d="M399.286,86.884l-51.512,68.051l-46.813,11.658c-31.269,48.123-29.281,91.502-29.281,91.502
					c8.088,109.712-37.459,106.324-37.459,106.324c-45.276-5.693-48.395-60.73-48.395-60.73
					c45.684,93.896,35.246-35.652,35.246-35.652c-6.552-90.056,36.194-181.333,36.194-181.333
					C302.136,0.398,399.286,86.884,399.286,86.884z"/>
			</g>
			<g>
			</g>
		</g>
	</g>
	<g style="display:inline;">
		<g id="XMLID_68_">
			<g>
				<path style="fill:#1AE2E2;" d="M459.954,9.79c159.813,0,289.352,129.585,289.352,289.397S619.767,588.539,459.954,588.539
					c-159.858,0-289.397-129.539-289.397-289.352S300.096,9.79,459.954,9.79z"/>
			</g>
			<g>
			</g>
		</g>
		<g id="XMLID_67_">
			<g>
				<path style="fill:#0FADB5;" d="M459.496,9.79c159.813,0,289.353,129.54,289.353,289.352
					c0,159.813-129.54,289.397-289.353,289.397V9.79z"/>
			</g>
			<g>
			</g>
		</g>
		<path style="fill:#140204;" d="M386.669,267.966c0,0-79.327-22.069-77.806,37.669c1.52,59.738,21.435,55.167,20.609,52.126
			c-0.825-3.04-34.303,8.433-35.828,33.136s-2.921,59.706,35.828,58.186c0,0-30.575,5.968-20.609,41.857
			c0,0,22.835,95.125,158.292,31.2c0,0,82.185-21.306,94.362-57.833c0,0,46.819-18.417,21.126-60.198
			c0,0,28.998-10.349,7.701-54.717c0,0,48.792-27.049,13.833-69.253c0,0-16.414-38.192-56.172-40.404L386.669,267.966z"/>
		<g id="XMLID_66_">
			<g>
				<rect x="414.84" y="365.389" style="fill:#F3D6BB;" width="85.249" height="141.548"/>
			</g>
			<g>
			</g>
		</g>
		<g id="XMLID_65_">
			<g>
				<rect x="459.495" y="352.421" style="fill:#E6C2A8;" width="42.625" height="141.549"/>
			</g>
			<g>
			</g>
		</g>
		<g id="XMLID_64_">
			<g>
				<path style="fill:#F40824;" d="M457.441,588.519c-82.189,3.014-142.096-38.629-142.096-38.629l12.739-85.613
					c18.265-30.41,86.755-51.733,86.755-51.733c1.507,45.66,41.232,93.695,41.232,93.695L457.441,588.519z"/>
				<path style="fill:#A50A24;" d="M586.844,464.276l12.146,88.49c0,0-59.359,38.766-141.549,35.752l-1.369-82.28
					c0,0,44.519-47.396,46.071-93.057C502.144,413.182,568.58,433.866,586.844,464.276z"/>
			</g>
			<g>
			</g>
		</g>
		<g id="XMLID_63_">
			<g>
				<path style="fill:#F3D6BB;" d="M571.319,238.165c10.822,2.146,16.438,19.68,12.512,39.177
					c-3.79,18.995-15.205,32.739-25.799,31.415c-17.625,48.675-53.971,82.144-96.024,82.144c-42.83,0-79.769-34.702-96.983-84.838
					c-1.05,0.549-2.1,1.005-3.288,1.233c-10.776,2.146-22.739-11.872-26.62-31.369c-3.881-19.451,1.735-36.985,12.557-39.177
					c2.329-0.457,4.749-0.137,7.123,0.822c1.872-79.678,49.131-143.466,107.211-143.466c58.172,0,105.477,64.016,107.211,143.831
					C569.904,237.936,570.635,238.027,571.319,238.165z"/>
			</g>
			<g>
			</g>
		</g>
		<g id="XMLID_62_">
			<g>
				<path style="fill:#E6C2A8;" d="M571.319,238.165c10.822,2.146,16.438,19.68,12.512,39.177
					c-3.79,18.995-15.205,32.739-25.799,31.415c-17.625,48.675-53.971,82.144-96.024,82.144c-0.867,0-1.689-0.091-2.512-0.137
					V94.196c0.822-0.045,1.645-0.091,2.512-0.091c58.172,0,105.477,64.016,107.211,143.831
					C569.904,237.936,570.635,238.027,571.319,238.165z"/>
			</g>
			<g>
			</g>
		</g>
		<path style="fill:#FFFFFF;" d="M487.897,339.484h-55.934c0,0,5.298,18.265,25.479,18.265
			C457.443,357.749,483.332,358.891,487.897,339.484z"/>
		<g id="XMLID_61_">
			<g>
				<path style="fill:#190205;" d="M582.644,184.239c0,33.104-4.201,58.263-4.201,58.263s-11.278-11.461-15.524,4.52
					c0,0-66.802-29.268-85.294-97.029c0,0,10.273,97.029-75.934,75.34c0,0-44.838-22.831-39.816,17.123c0,0-17.808-6.849-21.232,0
					c0,0-38.812-138.124,83.331-168.944C546.115,42.691,582.644,151.135,582.644,184.239z"/>
			</g>
			<g>
			</g>
		</g>
		<circle style="fill:#FFFFFF;" cx="410.079" cy="415.966" r="7.229"/>
		<circle style="fill:#FFFFFF;" cx="419.974" cy="438.311" r="7.229"/>
		<circle style="fill:#FFFFFF;" cx="414.841" cy="427.658" r="7.228"/>
		<circle style="fill:#FFFFFF;" cx="459.485" cy="462.656" r="7.229"/>
		<circle style="fill:#FFFFFF;" cx="449.274" cy="462.656" r="7.228"/>
		<circle style="fill:#FFFFFF;" cx="438.992" cy="459.616" r="7.228"/>
		<circle style="fill:#FFFFFF;" cx="431.764" cy="455.43" r="7.229"/>
		<circle style="fill:#FFFFFF;" cx="424.536" cy="448.2" r="7.228"/>
		<circle style="fill:#FFFFFF;" cx="504.763" cy="420.43" r="7.228"/>
		<path style="fill:#FFFFFF;" d="M509.352,431.252c-0.098,3.991-3.412,7.152-7.398,7.059c-3.99-0.098-7.152-3.412-7.058-7.397
			c0.098-3.991,3.41-7.152,7.4-7.059C506.284,423.952,509.444,427.266,509.352,431.252z"/>
		<circle style="fill:#FFFFFF;" cx="497.535" cy="440.972" r="7.228"/>
		<circle style="fill:#FFFFFF;" cx="490.307" cy="450.105" r="7.229"/>
		<circle style="fill:#FFFFFF;" cx="480.809" cy="457.333" r="7.229"/>
		<circle style="fill:#FFFFFF;" cx="472.042" cy="462.656" r="7.229"/>
	</g>
	<g style="display:inline;">
		<g id="XMLID_76_">
			<g>
				<path style="fill:#ED6156;" d="M426.277,8.619c160.638,0,290.846,130.253,290.846,290.891
					c0,160.638-130.208,290.845-290.846,290.845c-160.683,0-290.891-130.207-290.891-290.845
					C135.387,138.873,265.595,8.619,426.277,8.619z"/>
			</g>
			<g>
			</g>
		</g>
		<g id="XMLID_75_">
			<g>
				<path style="fill:#F4210B;" d="M426.257,8.637c160.637,0,290.845,130.208,290.845,290.845
					c0,160.637-130.208,290.891-290.845,290.891V8.637z"/>
			</g>
			<g>
			</g>
		</g>
		<g id="XMLID_78_">
			<g>
				<path style="fill:#110F44;" d="M524.494,427.977c0,0,17.992,27.767,27.905,75.866c0,0-161.785,117.494-239.808,0
					c0,0,6.058-50.945,33.733-108.315c27.676-57.37,4.131-99.871,4.131-99.871l158.342,13.035
					C508.798,308.691,491.22,346.51,524.494,427.977z"/>
			</g>
			<g>
			</g>
		</g>
		<g id="XMLID_74_">
			<g>
				<rect x="381.37" y="346.152" style="fill:#F3D6BB;" width="85.688" height="142.278"/>
			</g>
			<g>
			</g>
		</g>
		<g id="XMLID_73_">
			<g>
				<rect x="426.256" y="356.859" style="fill:#E6C2A8;" width="42.844" height="142.278"/>
			</g>
			<g>
			</g>
		</g>
		<g id="XMLID_72_">
			<g>
				<path style="fill:#F40BDE;" d="M554.262,469.292l12.208,85.688c0,0-59.665,38.231-142.278,35.202V473.882
					c0,0,43.372-10.694,44.933-56.591C469.124,417.291,535.903,438.725,554.262,469.292z"/>
				<path style="fill:#EF4DE8;" d="M424.191,473.882v116.301c-82.613,3.029-142.278-38.094-142.278-38.094l12.254-82.797
					c18.359-30.567,87.203-52.001,87.203-52.001C382.885,463.188,424.191,473.882,424.191,473.882z"/>
			</g>
			<g>
			</g>
		</g>
		<g id="XMLID_71_">
			<g>
				<path style="fill:#F3D6BB;" d="M538.657,242.013c10.877,2.157,16.522,19.781,12.575,39.379
					c-3.81,19.093-15.283,32.908-25.932,31.577c-17.716,48.926-54.249,82.567-96.52,82.567c-43.051,0-80.181-34.881-97.484-85.275
					c-1.056,0.551-2.111,1.01-3.305,1.239c-10.832,2.157-22.856-11.933-26.757-31.531c-3.901-19.552,1.744-37.176,12.622-39.379
					c2.34-0.459,4.773-0.138,7.16,0.826c1.882-80.089,49.384-144.207,107.765-144.207c58.472,0,106.021,64.347,107.765,144.574
					C537.234,241.784,537.969,241.875,538.657,242.013z"/>
			</g>
			<g>
			</g>
		</g>
		<g id="XMLID_70_">
			<g>
				<path style="fill:#E6C2A8;" d="M538.657,242.013c10.877,2.157,16.522,19.781,12.575,39.379
					c-3.81,19.093-15.283,32.908-25.932,31.577c-17.716,48.926-54.249,82.567-96.52,82.567c-0.872,0-1.698-0.092-2.524-0.138V97.302
					c0.826-0.046,1.652-0.092,2.524-0.092c58.472,0,106.021,64.347,107.765,144.574
					C537.234,241.784,537.969,241.875,538.657,242.013z"/>
			</g>
			<g>
			</g>
		</g>
		<path style="fill:#FFFFFF;" d="M454.803,343.855H398.58c0,0,5.325,18.358,25.611,18.358
			C424.19,362.214,450.213,363.361,454.803,343.855z"/>
		<g id="XMLID_69_">
			<g>
				<path style="fill:#110F44;" d="M548.471,187.81c0,33.275-4.223,58.563-4.223,58.563s-11.336-11.52-15.604,4.544
					c0,0-82.292-33.275-85.734-97.53c0,0,11.244-11.933-79.768,7.573c0,0-41.628,45.208-36.58,85.367c0,0-17.899-6.884-21.342,0
					c0,0-39.012-138.836,83.761-169.816C511.754,45.531,548.471,154.535,548.471,187.81z"/>
			</g>
			<g>
			</g>
		</g>
		<g id="XMLID_77_">
			<g>
				<path style="fill:#110F44;" d="M360.369,167.285c-1.606,3.075-32.541,64.346-18.45,106.846
					c-1.331-2.662-25.427-51.496-18.129-90.14c0,0,58.472-71.919,123.874-34.422c0,0-0.138,72.654-48.329,111.299
					c0,0,25.243-69.396,16.063-97.622c0,0-15.559,73.388-38.369,103.267c1.055-2.341,23.453-52.322,8.537-95.602
					c0,0-29.833,54.387-24.509,95.694C361.058,266.604,347.61,214.65,360.369,167.285z"/>
			</g>
			<g>
			</g>
		</g>
	</g>
</g>
</svg>
